<svg xmlns="http://www.w3.org/2000/svg" width="764.104" height="435.88" viewBox="0 0 764.104 435.88"><g transform="translate(-1890.896 2773)"><rect width="552" height="433" rx="5" transform="translate(2103 -2773)" fill="#3e7aca"/><path d="M13.184-260.742V-38.086q0,11.719,7.324,17.578t20.508,5.859H55.664v8.789H-51.27v-8.789h13.184q14.648,0,21.24-5.859t6.592-17.578V-215.332a12.88,12.88,0,0,0-3.662-9.521q-3.662-3.662-10.986-3.662H-51.27V-237.3h13.184q17.578,0,28.564-5.859A39.177,39.177,0,0,0,7.324-260.742Z" transform="translate(2309 -2422)" fill="#fff"/><path d="M-143.008-28.008-150.918,0h-3.848l-5.762-20.469a12.814,12.814,0,0,1-.449-2.852h-.078a14.467,14.467,0,0,1-.508,2.813L-167.363,0h-3.809l-8.2-28.008h3.613L-169.8-6.523a14.1,14.1,0,0,1,.469,2.813h.1a16.6,16.6,0,0,1,.605-2.812l6.191-21.484h3.145l5.938,21.641a15.832,15.832,0,0,1,.469,2.617h.078a15.688,15.688,0,0,1,.527-2.7l5.723-21.562ZM-124.766-9.2h-14.121a7.481,7.481,0,0,0,1.8,5.156,6.194,6.194,0,0,0,4.727,1.816,9.827,9.827,0,0,0,6.211-2.227v3.008A11.608,11.608,0,0,1-133.125.469a8.453,8.453,0,0,1-6.66-2.725q-2.422-2.725-2.422-7.666a10.936,10.936,0,0,1,2.646-7.607,8.486,8.486,0,0,1,6.572-2.939,7.519,7.519,0,0,1,6.074,2.539,10.586,10.586,0,0,1,2.148,7.051Zm-3.281-2.715a6.517,6.517,0,0,0-1.338-4.316,4.558,4.558,0,0,0-3.662-1.543,5.174,5.174,0,0,0-3.848,1.621,7.357,7.357,0,0,0-1.953,4.238ZM-94.648,0h-3.2V-3.125h-.078A6.706,6.706,0,0,1-104.082.469a6.575,6.575,0,0,1-4.678-1.582,5.481,5.481,0,0,1-1.689-4.2q0-5.605,6.6-6.523l6-.84q0-5.1-4.121-5.1a9.846,9.846,0,0,0-6.523,2.461v-3.281a12.394,12.394,0,0,1,6.8-1.875q7.051,0,7.051,7.461Zm-3.2-10.117-4.824.664a7.833,7.833,0,0,0-3.359,1.1,3.183,3.183,0,0,0-1.133,2.8,3.053,3.053,0,0,0,1.045,2.393,4.038,4.038,0,0,0,2.783.928A5.141,5.141,0,0,0-99.4-3.9a5.966,5.966,0,0,0,1.553-4.229Zm19.668-6.641a3.917,3.917,0,0,0-2.422-.645,4.088,4.088,0,0,0-3.428,1.934A8.94,8.94,0,0,0-85.41-10.2V0h-3.2V-20h3.2v4.121h.078a6.984,6.984,0,0,1,2.09-3.291A4.766,4.766,0,0,1-80.1-20.352a5.229,5.229,0,0,1,1.914.273ZM-58.633-9.2H-72.754a7.481,7.481,0,0,0,1.8,5.156A6.194,6.194,0,0,0-66.23-2.227,9.827,9.827,0,0,0-60.02-4.453v3.008A11.608,11.608,0,0,1-66.992.469a8.453,8.453,0,0,1-6.66-2.725q-2.422-2.725-2.422-7.666a10.936,10.936,0,0,1,2.646-7.607,8.486,8.486,0,0,1,6.572-2.939,7.519,7.519,0,0,1,6.074,2.539,10.586,10.586,0,0,1,2.148,7.051Zm-3.281-2.715a6.517,6.517,0,0,0-1.338-4.316,4.558,4.558,0,0,0-3.662-1.543,5.174,5.174,0,0,0-3.848,1.621,7.357,7.357,0,0,0-1.953,4.238ZM-26.23,0h-3.2V-11.406q0-6.367-4.648-6.367a5.042,5.042,0,0,0-3.975,1.807,6.7,6.7,0,0,0-1.572,4.561V0h-3.2V-20h3.2v3.32h.078a7.218,7.218,0,0,1,6.563-3.789,6.119,6.119,0,0,1,5.02,2.119,9.44,9.44,0,0,1,1.738,6.123Zm14.395.469a9.277,9.277,0,0,1-7.08-2.8,10.381,10.381,0,0,1-2.646-7.432q0-5.039,2.754-7.871a9.9,9.9,0,0,1,7.441-2.832,8.97,8.97,0,0,1,6.982,2.754q2.51,2.754,2.51,7.637A10.745,10.745,0,0,1-4.58-2.412,9.479,9.479,0,0,1-11.836.469Zm.234-18.242a6.093,6.093,0,0,0-4.883,2.1,8.623,8.623,0,0,0-1.8,5.791,8.155,8.155,0,0,0,1.816,5.605A6.173,6.173,0,0,0-11.6-2.227,5.856,5.856,0,0,0-6.826-4.238a8.73,8.73,0,0,0,1.67-5.723,8.88,8.88,0,0,0-1.67-5.781A5.83,5.83,0,0,0-11.6-17.773Z" transform="translate(2270.5 -2598) rotate(-90)" fill="#fff"/><path d="M23.164,0h-4.57L7.773-12.812a7.809,7.809,0,0,1-.742-.977H6.953V0H3.672V-28.008H6.953v13.164h.078a7.722,7.722,0,0,1,.742-.957L18.242-28.008h4.082L10.313-14.57ZM41.992-9.2H27.871a7.481,7.481,0,0,0,1.8,5.156,6.194,6.194,0,0,0,4.727,1.816,9.827,9.827,0,0,0,6.211-2.227v3.008A11.608,11.608,0,0,1,33.633.469a8.453,8.453,0,0,1-6.66-2.725Q24.551-4.98,24.551-9.922A10.936,10.936,0,0,1,27.2-17.529a8.486,8.486,0,0,1,6.572-2.939,7.519,7.519,0,0,1,6.074,2.539,10.586,10.586,0,0,1,2.148,7.051Zm-3.281-2.715a6.517,6.517,0,0,0-1.338-4.316,4.558,4.558,0,0,0-3.662-1.543,5.174,5.174,0,0,0-3.848,1.621,7.357,7.357,0,0,0-1.953,4.238Zm18.555-4.844a3.917,3.917,0,0,0-2.422-.645,4.088,4.088,0,0,0-3.428,1.934A8.94,8.94,0,0,0,50.039-10.2V0h-3.2V-20h3.2v4.121h.078a6.984,6.984,0,0,1,2.09-3.291,4.766,4.766,0,0,1,3.145-1.182,5.229,5.229,0,0,1,1.914.273ZM75.059,0h-3.2V-3.125h-.078A6.706,6.706,0,0,1,65.625.469a6.575,6.575,0,0,1-4.678-1.582,5.481,5.481,0,0,1-1.689-4.2q0-5.605,6.6-6.523l6-.84q0-5.1-4.121-5.1a9.846,9.846,0,0,0-6.523,2.461v-3.281a12.394,12.394,0,0,1,6.8-1.875q7.051,0,7.051,7.461Zm-3.2-10.117-4.824.664a7.833,7.833,0,0,0-3.359,1.1,3.183,3.183,0,0,0-1.133,2.8,3.053,3.053,0,0,0,1.045,2.393,4.038,4.038,0,0,0,2.783.928A5.141,5.141,0,0,0,70.3-3.9a5.966,5.966,0,0,0,1.553-4.229ZM84.3,0h-3.2V-29.609h3.2Zm20.8,0h-3.2V-3.125h-.078A6.706,6.706,0,0,1,95.664.469a6.575,6.575,0,0,1-4.678-1.582,5.481,5.481,0,0,1-1.689-4.2q0-5.605,6.6-6.523l6-.84q0-5.1-4.121-5.1a9.846,9.846,0,0,0-6.523,2.461v-3.281a12.394,12.394,0,0,1,6.8-1.875q7.051,0,7.051,7.461Zm-3.2-10.117-4.824.664a7.833,7.833,0,0,0-3.359,1.1,3.183,3.183,0,0,0-1.133,2.8,3.053,3.053,0,0,0,1.045,2.393,4.038,4.038,0,0,0,2.783.928,5.141,5.141,0,0,0,3.936-1.67,5.966,5.966,0,0,0,1.553-4.229Z" transform="translate(2367.146 -2448) rotate(-90)" fill="#fff"/><path d="M2.747,5.491A2.746,2.746,0,1,0,0,2.747,2.744,2.744,0,0,0,2.747,5.491Z" transform="translate(1890.896 -2550.177) rotate(-90)" fill="#3e7aca" opacity="0.2"/><path d="M2.747,5.491A2.746,2.746,0,1,0,0,2.747,2.744,2.744,0,0,0,2.747,5.491Z" transform="translate(1890.896 -2581.124) rotate(-90)" fill="#3e7aca" opacity="0.2"/><path d="M2.747,5.491A2.746,2.746,0,1,0,0,2.747,2.744,2.744,0,0,0,2.747,5.491Z" transform="translate(1890.896 -2612.072) rotate(-90)" fill="#3e7aca" opacity="0.2"/><path d="M2.744,5.491A2.746,2.746,0,1,0,0,2.747,2.744,2.744,0,0,0,2.744,5.491Z" transform="translate(1890.896 -2643.021) rotate(-90)" fill="#3e7aca" opacity="0.2"/><path d="M2.747,5.491A2.746,2.746,0,1,0,0,2.747,2.746,2.746,0,0,0,2.747,5.491Z" transform="translate(1890.896 -2673.967) rotate(-90)" fill="#3e7aca" opacity="0.2"/><path d="M2.747,5.491A2.746,2.746,0,1,0,0,2.747,2.744,2.744,0,0,0,2.747,5.491Z" transform="translate(1890.896 -2704.914) rotate(-90)" fill="#3e7aca" opacity="0.2"/><path d="M2.747,5.491A2.746,2.746,0,1,0,0,2.747,2.744,2.744,0,0,0,2.747,5.491Z" transform="translate(1890.896 -2735.862) rotate(-90)" fill="#3e7aca" opacity="0.2"/><path d="M2.747,5.491A2.746,2.746,0,1,0,0,2.747,2.744,2.744,0,0,0,2.747,5.491Z" transform="translate(1890.896 -2766.809) rotate(-90)" fill="#3e7aca" opacity="0.2"/><path d="M2.744,5.491A2.746,2.746,0,1,0,0,2.747,2.744,2.744,0,0,0,2.744,5.491Z" transform="translate(1921.843 -2550.174) rotate(-90)" fill="#3e7aca" opacity="0.3"/><path d="M2.747,5.491A2.746,2.746,0,1,0,0,2.747,2.746,2.746,0,0,0,2.747,5.491Z" transform="translate(1921.843 -2581.12) rotate(-90)" fill="#3e7aca" opacity="0.3"/><path d="M2.747,5.491A2.746,2.746,0,1,0,0,2.747,2.744,2.744,0,0,0,2.747,5.491Z" transform="translate(1921.843 -2612.067) rotate(-90)" fill="#3e7aca" opacity="0.3"/><path d="M2.747,5.491A2.746,2.746,0,1,0,0,2.747,2.744,2.744,0,0,0,2.747,5.491Z" transform="translate(1921.843 -2643.015) rotate(-90)" fill="#3e7aca" opacity="0.3"/><path d="M2.747,5.491A2.746,2.746,0,1,0,0,2.747,2.744,2.744,0,0,0,2.747,5.491Z" transform="translate(1921.843 -2673.962) rotate(-90)" fill="#3e7aca" opacity="0.3"/><path d="M2.744,5.491A2.746,2.746,0,1,0,0,2.747,2.744,2.744,0,0,0,2.744,5.491Z" transform="translate(1921.843 -2704.912) rotate(-90)" fill="#3e7aca" opacity="0.3"/><path d="M2.747,5.491A2.746,2.746,0,1,0,0,2.747,2.746,2.746,0,0,0,2.747,5.491Z" transform="translate(1921.843 -2735.857) rotate(-90)" fill="#3e7aca" opacity="0.3"/><path d="M2.747,5.491A2.746,2.746,0,1,0,0,2.747,2.744,2.744,0,0,0,2.747,5.491Z" transform="translate(1921.843 -2766.805) rotate(-90)" fill="#3e7aca" opacity="0.3"/><path d="M2.747,5.493A2.747,2.747,0,1,0,0,2.747,2.747,2.747,0,0,0,2.747,5.493Z" transform="translate(1952.791 -2550.177) rotate(-90)" fill="#3e7aca" opacity="0.4"/><circle cx="2.747" cy="2.747" r="2.747" transform="translate(1952.79 -2581.125) rotate(-90)" fill="#3e7aca" opacity="0.4"/><path d="M2.747,5.493A2.747,2.747,0,1,0,0,2.747,2.747,2.747,0,0,0,2.747,5.493Z" transform="translate(1952.791 -2612.072) rotate(-90)" fill="#3e7aca" opacity="0.4"/><path d="M2.744,5.493A2.747,2.747,0,1,0,0,2.747,2.747,2.747,0,0,0,2.744,5.493Z" transform="translate(1952.791 -2643.021) rotate(-90)" fill="#3e7aca" opacity="0.4"/><path d="M2.747,5.493A2.747,2.747,0,1,0,0,2.747,2.749,2.749,0,0,0,2.747,5.493Z" transform="translate(1952.791 -2673.967) rotate(-90)" fill="#3e7aca" opacity="0.4"/><path d="M2.747,5.493A2.747,2.747,0,1,0,0,2.747,2.747,2.747,0,0,0,2.747,5.493Z" transform="translate(1952.791 -2704.914) rotate(-90)" fill="#3e7aca" opacity="0.4"/><circle cx="2.747" cy="2.747" r="2.747" transform="translate(1952.79 -2735.862) rotate(-90)" fill="#3e7aca" opacity="0.4"/><path d="M2.747,5.493A2.747,2.747,0,1,0,0,2.747,2.747,2.747,0,0,0,2.747,5.493Z" transform="translate(1952.791 -2766.809) rotate(-90)" fill="#3e7aca" opacity="0.4"/><path d="M2.744,5.493A2.747,2.747,0,1,0,0,2.747,2.747,2.747,0,0,0,2.744,5.493Z" transform="translate(1983.738 -2550.174) rotate(-90)" fill="#3e7aca" opacity="0.5"/><path d="M2.747,5.493A2.747,2.747,0,1,0,0,2.747,2.749,2.749,0,0,0,2.747,5.493Z" transform="translate(1983.738 -2581.12) rotate(-90)" fill="#3e7aca" opacity="0.5"/><path d="M2.747,5.493A2.747,2.747,0,1,0,0,2.747,2.747,2.747,0,0,0,2.747,5.493Z" transform="translate(1983.738 -2612.067) rotate(-90)" fill="#3e7aca" opacity="0.5"/><circle cx="2.747" cy="2.747" r="2.747" transform="translate(1983.737 -2643.015) rotate(-90)" fill="#3e7aca" opacity="0.5"/><path d="M2.747,5.493A2.747,2.747,0,1,0,0,2.747,2.747,2.747,0,0,0,2.747,5.493Z" transform="translate(1983.738 -2673.962) rotate(-90)" fill="#3e7aca" opacity="0.5"/><path d="M2.744,5.493A2.747,2.747,0,1,0,0,2.747,2.747,2.747,0,0,0,2.744,5.493Z" transform="translate(1983.738 -2704.912) rotate(-90)" fill="#3e7aca" opacity="0.5"/><path d="M2.747,5.493A2.747,2.747,0,1,0,0,2.747,2.749,2.749,0,0,0,2.747,5.493Z" transform="translate(1983.738 -2735.857) rotate(-90)" fill="#3e7aca" opacity="0.5"/><path d="M2.747,5.493A2.747,2.747,0,1,0,0,2.747,2.747,2.747,0,0,0,2.747,5.493Z" transform="translate(1983.738 -2766.805) rotate(-90)" fill="#3e7aca" opacity="0.5"/><path d="M2.747,5.493A2.747,2.747,0,1,0,0,2.747,2.747,2.747,0,0,0,2.747,5.493Z" transform="translate(2014.685 -2550.177) rotate(-90)" fill="#3e7aca" opacity="0.6"/><path d="M2.747,5.493A2.747,2.747,0,1,0,0,2.747,2.747,2.747,0,0,0,2.747,5.493Z" transform="translate(2014.685 -2581.124) rotate(-90)" fill="#3e7aca" opacity="0.6"/><path d="M2.747,5.493A2.747,2.747,0,1,0,0,2.747,2.747,2.747,0,0,0,2.747,5.493Z" transform="translate(2014.685 -2612.072) rotate(-90)" fill="#3e7aca" opacity="0.6"/><path d="M2.744,5.493A2.747,2.747,0,1,0,0,2.747,2.747,2.747,0,0,0,2.744,5.493Z" transform="translate(2014.685 -2643.021) rotate(-90)" fill="#3e7aca" opacity="0.6"/><path d="M2.747,5.493A2.747,2.747,0,1,0,0,2.747,2.749,2.749,0,0,0,2.747,5.493Z" transform="translate(2014.685 -2673.967) rotate(-90)" fill="#3e7aca" opacity="0.6"/><path d="M2.747,5.493A2.747,2.747,0,1,0,0,2.747,2.747,2.747,0,0,0,2.747,5.493Z" transform="translate(2014.685 -2704.914) rotate(-90)" fill="#3e7aca" opacity="0.6"/><path d="M2.747,5.493A2.747,2.747,0,1,0,0,2.747,2.747,2.747,0,0,0,2.747,5.493Z" transform="translate(2014.685 -2735.862) rotate(-90)" fill="#3e7aca" opacity="0.6"/><path d="M2.747,5.493A2.747,2.747,0,1,0,0,2.747,2.747,2.747,0,0,0,2.747,5.493Z" transform="translate(2014.685 -2766.809) rotate(-90)" fill="#3e7aca" opacity="0.6"/><path d="M2.744,5.493A2.747,2.747,0,1,0,0,2.747,2.746,2.746,0,0,0,2.744,5.493Z" transform="translate(2045.633 -2550.174) rotate(-90)" fill="#3e7aca" opacity="0.8"/><path d="M2.747,5.493A2.747,2.747,0,1,0,0,2.747,2.748,2.748,0,0,0,2.747,5.493Z" transform="translate(2045.633 -2581.12) rotate(-90)" fill="#3e7aca" opacity="0.8"/><path d="M2.747,5.493A2.747,2.747,0,1,0,0,2.747,2.746,2.746,0,0,0,2.747,5.493Z" transform="translate(2045.633 -2612.067) rotate(-90)" fill="#3e7aca" opacity="0.8"/><path d="M2.747,5.493A2.747,2.747,0,1,0,0,2.747,2.746,2.746,0,0,0,2.747,5.493Z" transform="translate(2045.633 -2643.015) rotate(-90)" fill="#3e7aca" opacity="0.8"/><path d="M2.747,5.493A2.747,2.747,0,1,0,0,2.747,2.746,2.746,0,0,0,2.747,5.493Z" transform="translate(2045.633 -2673.962) rotate(-90)" fill="#3e7aca" opacity="0.8"/><path d="M2.744,5.493A2.747,2.747,0,1,0,0,2.747,2.746,2.746,0,0,0,2.744,5.493Z" transform="translate(2045.633 -2704.912) rotate(-90)" fill="#3e7aca" opacity="0.8"/><path d="M2.747,5.493A2.747,2.747,0,1,0,0,2.747,2.747,2.747,0,0,0,2.747,5.493Z" transform="translate(2045.633 -2735.857) rotate(-90)" fill="#3e7aca" opacity="0.8"/><path d="M2.747,5.493A2.747,2.747,0,1,0,0,2.747,2.746,2.746,0,0,0,2.747,5.493Z" transform="translate(2045.633 -2766.805) rotate(-90)" fill="#3e7aca" opacity="0.8"/><path d="M2.747,5.491A2.746,2.746,0,1,0,0,2.747,2.744,2.744,0,0,0,2.747,5.491Z" transform="translate(2076.58 -2550.177) rotate(-90)" fill="#3e7aca"/><path d="M2.747,5.491A2.746,2.746,0,1,0,0,2.747,2.744,2.744,0,0,0,2.747,5.491Z" transform="translate(2076.58 -2581.124) rotate(-90)" fill="#3e7aca"/><path d="M2.747,5.491A2.746,2.746,0,1,0,0,2.747,2.744,2.744,0,0,0,2.747,5.491Z" transform="translate(2076.58 -2612.072) rotate(-90)" fill="#3e7aca"/><path d="M2.744,5.491A2.746,2.746,0,1,0,0,2.747,2.744,2.744,0,0,0,2.744,5.491Z" transform="translate(2076.58 -2643.021) rotate(-90)" fill="#3e7aca"/><path d="M2.747,5.491A2.746,2.746,0,1,0,0,2.747,2.746,2.746,0,0,0,2.747,5.491Z" transform="translate(2076.58 -2673.967) rotate(-90)" fill="#3e7aca"/><path d="M2.747,5.491A2.746,2.746,0,1,0,0,2.747,2.744,2.744,0,0,0,2.747,5.491Z" transform="translate(2076.58 -2704.914) rotate(-90)" fill="#3e7aca"/><path d="M2.747,5.491A2.746,2.746,0,1,0,0,2.747,2.744,2.744,0,0,0,2.747,5.491Z" transform="translate(2076.58 -2735.862) rotate(-90)" fill="#3e7aca"/><path d="M2.747,5.491A2.746,2.746,0,1,0,0,2.747,2.744,2.744,0,0,0,2.747,5.491Z" transform="translate(2076.58 -2766.809) rotate(-90)" fill="#3e7aca"/><path d="M2.747,5.491A2.746,2.746,0,1,0,0,2.747,2.744,2.744,0,0,0,2.747,5.491Z" transform="translate(1890.896 -2337.124) rotate(-90)" fill="#3e7aca" opacity="0.2"/><path d="M2.747,5.491A2.746,2.746,0,1,0,0,2.747,2.744,2.744,0,0,0,2.747,5.491Z" transform="translate(1890.896 -2368.072) rotate(-90)" fill="#3e7aca" opacity="0.2"/><path d="M2.744,5.491A2.746,2.746,0,1,0,0,2.747,2.744,2.744,0,0,0,2.744,5.491Z" transform="translate(1890.896 -2399.021) rotate(-90)" fill="#3e7aca" opacity="0.2"/><path d="M2.747,5.491A2.746,2.746,0,1,0,0,2.747,2.746,2.746,0,0,0,2.747,5.491Z" transform="translate(1890.896 -2429.967) rotate(-90)" fill="#3e7aca" opacity="0.2"/><path d="M2.747,5.491A2.746,2.746,0,1,0,0,2.747,2.744,2.744,0,0,0,2.747,5.491Z" transform="translate(1890.896 -2460.914) rotate(-90)" fill="#3e7aca" opacity="0.2"/><path d="M2.747,5.491A2.746,2.746,0,1,0,0,2.747,2.744,2.744,0,0,0,2.747,5.491Z" transform="translate(1890.896 -2491.862) rotate(-90)" fill="#3e7aca" opacity="0.2"/><path d="M2.747,5.491A2.746,2.746,0,1,0,0,2.747,2.744,2.744,0,0,0,2.747,5.491Z" transform="translate(1890.896 -2522.809) rotate(-90)" fill="#3e7aca" opacity="0.2"/><path d="M2.747,5.491A2.746,2.746,0,1,0,0,2.747,2.746,2.746,0,0,0,2.747,5.491Z" transform="translate(1921.843 -2337.12) rotate(-90)" fill="#3e7aca" opacity="0.3"/><path d="M2.747,5.491A2.746,2.746,0,1,0,0,2.747,2.744,2.744,0,0,0,2.747,5.491Z" transform="translate(1921.843 -2368.067) rotate(-90)" fill="#3e7aca" opacity="0.3"/><path d="M2.747,5.491A2.746,2.746,0,1,0,0,2.747,2.744,2.744,0,0,0,2.747,5.491Z" transform="translate(1921.843 -2399.015) rotate(-90)" fill="#3e7aca" opacity="0.3"/><path d="M2.747,5.491A2.746,2.746,0,1,0,0,2.747,2.744,2.744,0,0,0,2.747,5.491Z" transform="translate(1921.843 -2429.962) rotate(-90)" fill="#3e7aca" opacity="0.3"/><path d="M2.744,5.491A2.746,2.746,0,1,0,0,2.747,2.744,2.744,0,0,0,2.744,5.491Z" transform="translate(1921.843 -2460.912) rotate(-90)" fill="#3e7aca" opacity="0.3"/><path d="M2.747,5.491A2.746,2.746,0,1,0,0,2.747,2.746,2.746,0,0,0,2.747,5.491Z" transform="translate(1921.843 -2491.857) rotate(-90)" fill="#3e7aca" opacity="0.3"/><path d="M2.747,5.491A2.746,2.746,0,1,0,0,2.747,2.744,2.744,0,0,0,2.747,5.491Z" transform="translate(1921.843 -2522.805) rotate(-90)" fill="#3e7aca" opacity="0.3"/><circle cx="2.747" cy="2.747" r="2.747" transform="translate(1952.79 -2337.125) rotate(-90)" fill="#3e7aca" opacity="0.4"/><path d="M2.747,5.493A2.747,2.747,0,1,0,0,2.747,2.747,2.747,0,0,0,2.747,5.493Z" transform="translate(1952.791 -2368.072) rotate(-90)" fill="#3e7aca" opacity="0.4"/><path d="M2.744,5.493A2.747,2.747,0,1,0,0,2.747,2.747,2.747,0,0,0,2.744,5.493Z" transform="translate(1952.791 -2399.021) rotate(-90)" fill="#3e7aca" opacity="0.4"/><path d="M2.747,5.493A2.747,2.747,0,1,0,0,2.747,2.749,2.749,0,0,0,2.747,5.493Z" transform="translate(1952.791 -2429.967) rotate(-90)" fill="#3e7aca" opacity="0.4"/><path d="M2.747,5.493A2.747,2.747,0,1,0,0,2.747,2.747,2.747,0,0,0,2.747,5.493Z" transform="translate(1952.791 -2460.914) rotate(-90)" fill="#3e7aca" opacity="0.4"/><circle cx="2.747" cy="2.747" r="2.747" transform="translate(1952.79 -2491.862) rotate(-90)" fill="#3e7aca" opacity="0.4"/><path d="M2.747,5.493A2.747,2.747,0,1,0,0,2.747,2.747,2.747,0,0,0,2.747,5.493Z" transform="translate(1952.791 -2522.809) rotate(-90)" fill="#3e7aca" opacity="0.4"/><path d="M2.747,5.493A2.747,2.747,0,1,0,0,2.747,2.749,2.749,0,0,0,2.747,5.493Z" transform="translate(1983.738 -2337.12) rotate(-90)" fill="#3e7aca" opacity="0.5"/><path d="M2.747,5.493A2.747,2.747,0,1,0,0,2.747,2.747,2.747,0,0,0,2.747,5.493Z" transform="translate(1983.738 -2368.067) rotate(-90)" fill="#3e7aca" opacity="0.5"/><circle cx="2.747" cy="2.747" r="2.747" transform="translate(1983.737 -2399.015) rotate(-90)" fill="#3e7aca" opacity="0.5"/><path d="M2.747,5.493A2.747,2.747,0,1,0,0,2.747,2.747,2.747,0,0,0,2.747,5.493Z" transform="translate(1983.738 -2429.962) rotate(-90)" fill="#3e7aca" opacity="0.5"/><path d="M2.744,5.493A2.747,2.747,0,1,0,0,2.747,2.747,2.747,0,0,0,2.744,5.493Z" transform="translate(1983.738 -2460.912) rotate(-90)" fill="#3e7aca" opacity="0.5"/><path d="M2.747,5.493A2.747,2.747,0,1,0,0,2.747,2.749,2.749,0,0,0,2.747,5.493Z" transform="translate(1983.738 -2491.857) rotate(-90)" fill="#3e7aca" opacity="0.5"/><path d="M2.747,5.493A2.747,2.747,0,1,0,0,2.747,2.747,2.747,0,0,0,2.747,5.493Z" transform="translate(1983.738 -2522.805) rotate(-90)" fill="#3e7aca" opacity="0.5"/><path d="M2.747,5.493A2.747,2.747,0,1,0,0,2.747,2.747,2.747,0,0,0,2.747,5.493Z" transform="translate(2014.685 -2337.124) rotate(-90)" fill="#3e7aca" opacity="0.6"/><path d="M2.747,5.493A2.747,2.747,0,1,0,0,2.747,2.747,2.747,0,0,0,2.747,5.493Z" transform="translate(2014.685 -2368.072) rotate(-90)" fill="#3e7aca" opacity="0.6"/><path d="M2.744,5.493A2.747,2.747,0,1,0,0,2.747,2.747,2.747,0,0,0,2.744,5.493Z" transform="translate(2014.685 -2399.021) rotate(-90)" fill="#3e7aca" opacity="0.6"/><path d="M2.747,5.493A2.747,2.747,0,1,0,0,2.747,2.749,2.749,0,0,0,2.747,5.493Z" transform="translate(2014.685 -2429.967) rotate(-90)" fill="#3e7aca" opacity="0.6"/><path d="M2.747,5.493A2.747,2.747,0,1,0,0,2.747,2.747,2.747,0,0,0,2.747,5.493Z" transform="translate(2014.685 -2460.914) rotate(-90)" fill="#3e7aca" opacity="0.6"/><path d="M2.747,5.493A2.747,2.747,0,1,0,0,2.747,2.747,2.747,0,0,0,2.747,5.493Z" transform="translate(2014.685 -2491.862) rotate(-90)" fill="#3e7aca" opacity="0.6"/><path d="M2.747,5.493A2.747,2.747,0,1,0,0,2.747,2.747,2.747,0,0,0,2.747,5.493Z" transform="translate(2014.685 -2522.809) rotate(-90)" fill="#3e7aca" opacity="0.6"/><path d="M2.747,5.493A2.747,2.747,0,1,0,0,2.747,2.748,2.748,0,0,0,2.747,5.493Z" transform="translate(2045.633 -2337.12) rotate(-90)" fill="#3e7aca" opacity="0.8"/><path d="M2.747,5.493A2.747,2.747,0,1,0,0,2.747,2.746,2.746,0,0,0,2.747,5.493Z" transform="translate(2045.633 -2368.067) rotate(-90)" fill="#3e7aca" opacity="0.8"/><path d="M2.747,5.493A2.747,2.747,0,1,0,0,2.747,2.746,2.746,0,0,0,2.747,5.493Z" transform="translate(2045.633 -2399.015) rotate(-90)" fill="#3e7aca" opacity="0.8"/><path d="M2.747,5.493A2.747,2.747,0,1,0,0,2.747,2.746,2.746,0,0,0,2.747,5.493Z" transform="translate(2045.633 -2429.962) rotate(-90)" fill="#3e7aca" opacity="0.8"/><path d="M2.744,5.493A2.747,2.747,0,1,0,0,2.747,2.746,2.746,0,0,0,2.744,5.493Z" transform="translate(2045.633 -2460.912) rotate(-90)" fill="#3e7aca" opacity="0.8"/><path d="M2.747,5.493A2.747,2.747,0,1,0,0,2.747,2.747,2.747,0,0,0,2.747,5.493Z" transform="translate(2045.633 -2491.857) rotate(-90)" fill="#3e7aca" opacity="0.8"/><path d="M2.747,5.493A2.747,2.747,0,1,0,0,2.747,2.746,2.746,0,0,0,2.747,5.493Z" transform="translate(2045.633 -2522.805) rotate(-90)" fill="#3e7aca" opacity="0.8"/><path d="M2.747,5.491A2.746,2.746,0,1,0,0,2.747,2.744,2.744,0,0,0,2.747,5.491Z" transform="translate(2076.58 -2337.124) rotate(-90)" fill="#3e7aca"/><path d="M2.747,5.491A2.746,2.746,0,1,0,0,2.747,2.744,2.744,0,0,0,2.747,5.491Z" transform="translate(2076.58 -2368.072) rotate(-90)" fill="#3e7aca"/><path d="M2.744,5.491A2.746,2.746,0,1,0,0,2.747,2.744,2.744,0,0,0,2.744,5.491Z" transform="translate(2076.58 -2399.021) rotate(-90)" fill="#3e7aca"/><path d="M2.747,5.491A2.746,2.746,0,1,0,0,2.747,2.746,2.746,0,0,0,2.747,5.491Z" transform="translate(2076.58 -2429.967) rotate(-90)" fill="#3e7aca"/><path d="M2.747,5.491A2.746,2.746,0,1,0,0,2.747,2.744,2.744,0,0,0,2.747,5.491Z" transform="translate(2076.58 -2460.914) rotate(-90)" fill="#3e7aca"/><path d="M2.747,5.491A2.746,2.746,0,1,0,0,2.747,2.744,2.744,0,0,0,2.747,5.491Z" transform="translate(2076.58 -2491.862) rotate(-90)" fill="#3e7aca"/><path d="M2.747,5.491A2.746,2.746,0,1,0,0,2.747,2.744,2.744,0,0,0,2.747,5.491Z" transform="translate(2076.58 -2522.809) rotate(-90)" fill="#3e7aca"/></g></svg>