<svg xmlns="http://www.w3.org/2000/svg" width="76.224" height="106.113" viewBox="0 0 76.224 106.113"><g transform="translate(-310.527 -212.31)" opacity="0.6"><path d="M505.93,393.107a12.044,12.044,0,1,0-17.923,10.507l.25-7.99a5.923,5.923,0,0,1,5.924-5.921h.336a4.666,4.666,0,0,1,4.666,4.666v9.542A12.038,12.038,0,0,0,505.93,393.107Z" transform="translate(-145.247 -143.078)" fill="#bfc7ce"/><path d="M421.734,442.491a4.666,4.666,0,0,0-4.666-4.666h-.336a5.923,5.923,0,0,0-5.924,5.921l-.25,7.99-.555,17.6c-.126.543-.2,12.783-.2,12.783-1.035-1.055-2.187-2.262-3.221-3.417a17.378,17.378,0,0,0-9.806-4.847,4.886,4.886,0,0,0-3.531.629,7.313,7.313,0,0,0-.733.641c-1.523,1.5-2.672,3.922-1.609,5.7a6.09,6.09,0,0,0,2.089,1.83,14.671,14.671,0,0,1,4.393,3.3c2.358,3.017,7.818,9.76,11.173,13.36.7.434,2.175,1.908,2.873,2.281a26.132,26.132,0,0,1,4.447,3.316,25.5,25.5,0,0,0,14.274,4.7c4.7,0,8.976.282,12.133-2.5h.169l.083-.21a15.6,15.6,0,0,0,5.209-11.527V473.831c0-1.057-.233-4.6-3.21-5.66a5.269,5.269,0,0,0-3.936.181l-.269.012-.083.005a4.524,4.524,0,0,0-3.724-3.534,6.228,6.228,0,0,0-4.873.989,5.122,5.122,0,0,0-5.473-2.911,6.355,6.355,0,0,0-4.447,2.382v-22.8Z" transform="translate(-67.797 -191.201)" fill="#fff"/><path d="M375.514,270.026l2.391,2.661a1.1,1.1,0,0,0,1.7-.075,38.088,38.088,0,0,0-30.964-60.3,39.415,39.415,0,0,0-4.35.242,38.092,38.092,0,0,0-26.616,60.06,1.1,1.1,0,0,0,1.7.077l2.387-2.658a1.089,1.089,0,0,0,.077-1.351,32.453,32.453,0,1,1,53.593-.005A1.09,1.09,0,0,0,375.514,270.026Z" fill="#fff"/><path d="M449.356,342.66l2.531,2.816a1.1,1.1,0,0,0,1.8-.244,22.59,22.59,0,0,0,2.439-10.252,22.936,22.936,0,1,0-45.873,0,22.613,22.613,0,0,0,2.437,10.252,1.1,1.1,0,0,0,1.807.244l2.528-2.816a1.1,1.1,0,0,0,.19-1.155,17.144,17.144,0,0,1-1.3-6.525,17.27,17.27,0,1,1,33.247,6.525A1.1,1.1,0,0,0,449.356,342.66Z" transform="translate(-84.556 -84.558)" fill="#bfc7ce"/></g></svg>