<svg xmlns="http://www.w3.org/2000/svg" width="697.104" height="435.88" viewBox="0 0 697.104 435.88">
  <g id="Group_7485" data-name="Group 7485" transform="translate(-934.896 -142)">
    <rect id="Rectangle_193" data-name="Rectangle 193" width="485" height="433" rx="5" transform="translate(1147 142)" fill="#3e7aca"/>
    <g id="Group_7484" data-name="Group 7484" transform="translate(240 15)">
      <path id="Path_3816" data-name="Path 3816" d="M13.184-260.742V-38.086q0,11.719,7.324,17.578t20.508,5.859H55.664v8.789H-51.27v-8.789h13.184q14.648,0,21.24-5.859t6.592-17.578V-215.332a12.88,12.88,0,0,0-3.662-9.521q-3.662-3.662-10.986-3.662H-51.27V-237.3h13.184q17.578,0,28.564-5.859A39.177,39.177,0,0,0,7.324-260.742Z" transform="translate(1113 478)" fill="#fff"/>
      <path id="Path_3815" data-name="Path 3815" d="M-138.72,3.48a4.418,4.418,0,0,1-1.02-.14,4,4,0,0,1-1.14-.48,2.655,2.655,0,0,1-.92-.96,3.2,3.2,0,0,1-.36-1.62,13.8,13.8,0,0,1,.68-3.7q.68-2.3,1.56-5.1.68-2.16,1.32-4.48t1.06-4.64a24.938,24.938,0,0,0,.42-4.44q0-1.48-.1-2.76a4.428,4.428,0,0,0-.6-2.06,1.862,1.862,0,0,0-1.7-.78,2.842,2.842,0,0,0-1.9.66,5.058,5.058,0,0,0-1.28,1.7,8.867,8.867,0,0,0-.72,2.2,11.636,11.636,0,0,0-.22,2.16,5.53,5.53,0,0,0,.36,2.16,2.569,2.569,0,0,1-2.2-.86,3.29,3.29,0,0,1-.64-2.02,5.81,5.81,0,0,1,.58-2.48,8.515,8.515,0,0,1,1.6-2.3,8.169,8.169,0,0,1,2.34-1.7,6.336,6.336,0,0,1,2.8-.64,4.075,4.075,0,0,1,3.7,1.94,9.639,9.639,0,0,1,1.22,5.18,25.361,25.361,0,0,1-.82,6.18q-.82,3.26-1.82,6.34-.64,2-1.22,3.82T-138.68-2a11.809,11.809,0,0,0-.36,2.68,2.28,2.28,0,0,0,.24,1.16,1.029,1.029,0,0,0,.96.4,3.775,3.775,0,0,0,2.22-.94,14.552,14.552,0,0,0,2.48-2.54,35.714,35.714,0,0,0,2.44-3.54q1.18-1.94,2.16-3.98a40.881,40.881,0,0,0,1.64-3.88,14.986,14.986,0,0,0,.82-3.16,2.246,2.246,0,0,1,1.86.68,2.107,2.107,0,0,1,.54,1.28,6.07,6.07,0,0,1-.52,1.96q-.52,1.32-1.24,2.96-.6,1.44-1.22,3.08a31.076,31.076,0,0,0-1.04,3.28,12.583,12.583,0,0,0-.42,3.12,3.1,3.1,0,0,0,.2,1.22q.2.46.92.46a4.511,4.511,0,0,0,2.6-1.14,18.435,18.435,0,0,0,3.06-3.12,41.97,41.97,0,0,0,3.08-4.46,46.442,46.442,0,0,0,2.7-5.18,38.111,38.111,0,0,0,1.92-5.3,18.081,18.081,0,0,0,.72-4.8,5.6,5.6,0,0,0-.6-2.94,2.733,2.733,0,0,0-1.6-1.22,4.406,4.406,0,0,1,1.18-1.4,2.02,2.02,0,0,1,1.14-.44,2.164,2.164,0,0,1,1.64,1.08,5.671,5.671,0,0,1,.8,3.36,18.024,18.024,0,0,1-.82,5,41.868,41.868,0,0,1-2.22,5.82,51.022,51.022,0,0,1-3.2,5.86,43.844,43.844,0,0,1-3.76,5.12,21.986,21.986,0,0,1-3.88,3.64,6.293,6.293,0,0,1-3.56,1.36,4.185,4.185,0,0,1-1.56-.32,3.274,3.274,0,0,1-1.34-.98,2.6,2.6,0,0,1-.54-1.7,7.052,7.052,0,0,1,.22-1.54q.22-.94.58-2.06a26.652,26.652,0,0,1-4.18,4.74A6.4,6.4,0,0,1-138.72,3.48Zm31-1.72A4.705,4.705,0,0,1-111.38.42a4.721,4.721,0,0,1-1.22-3.3,9.27,9.27,0,0,1,.9-3.8,15.747,15.747,0,0,1,2.4-3.76A13.794,13.794,0,0,1-106-13.3a6.8,6.8,0,0,1,3.56-1.1,3.183,3.183,0,0,1,1.7.48,2.129,2.129,0,0,1,.78,1.96,5.038,5.038,0,0,1-.9,2.86,9.3,9.3,0,0,1-2.36,2.38,14.117,14.117,0,0,1-3.2,1.7,13.174,13.174,0,0,1-3.46.82q-.08.4-.12.76a6.172,6.172,0,0,0-.04.68,5.266,5.266,0,0,0,.14,1.2,3.051,3.051,0,0,0,.5,1.1,2.388,2.388,0,0,0,.98.78,3.741,3.741,0,0,0,1.54.28,6.683,6.683,0,0,0,3.4-.98,13.063,13.063,0,0,0,3.12-2.58,16.931,16.931,0,0,0,2.44-3.52l.48.36a14.931,14.931,0,0,1-2.74,4.16,13.039,13.039,0,0,1-3.6,2.74A8.653,8.653,0,0,1-107.72,1.76Zm-1.96-6.72a17.6,17.6,0,0,0,2.44-1.06,17.642,17.642,0,0,0,2.62-1.66,9.761,9.761,0,0,0,2.08-2.12,4.161,4.161,0,0,0,.82-2.44,1.221,1.221,0,0,0-.16-.68.773.773,0,0,0-.68-.24,3.654,3.654,0,0,0-2.04.74,10.374,10.374,0,0,0-2.08,1.94,17.025,17.025,0,0,0-1.8,2.64A13.22,13.22,0,0,0-109.68-4.96ZM-86.4,1.88a2.929,2.929,0,0,1-2.1-.82,3.3,3.3,0,0,1-.86-2.5,8.651,8.651,0,0,1,.64-3.1,15.724,15.724,0,0,1,1.76-3.28,18.6,18.6,0,0,1,2.54-2.96,12.809,12.809,0,0,1,3-2.14,6.9,6.9,0,0,1,3.14-.8,4.07,4.07,0,0,1,2.6.82,2.637,2.637,0,0,1,1.04,2.18,1.52,1.52,0,0,1-.54,1.36A2.519,2.519,0,0,1-76.6-9q.08-.32.14-.7a4.513,4.513,0,0,0,.06-.7,2.782,2.782,0,0,0-.44-1.58,1.69,1.69,0,0,0-1.52-.66,4.081,4.081,0,0,0-2.28.78,10.758,10.758,0,0,0-2.24,2.08A18.1,18.1,0,0,0-84.8-6.96a17.165,17.165,0,0,0-1.32,3,8.678,8.678,0,0,0-.48,2.64q0,1.56,1.08,1.56a3.313,3.313,0,0,0,2-.86,16.328,16.328,0,0,0,2.22-2.2q1.14-1.34,2.18-2.78t1.84-2.64q.16-.24.2-.24a4.76,4.76,0,0,1,.62.16A2.338,2.338,0,0,1-75.8-8a.612.612,0,0,1,.28.52,2.16,2.16,0,0,1-.36.98q-.36.62-.8,1.42t-.8,1.62a3.844,3.844,0,0,0-.36,1.54,2.417,2.417,0,0,0,.32,1.18,1.1,1.1,0,0,0,1.04.58,4.951,4.951,0,0,0,2.84-1.58,19.055,19.055,0,0,0,3.56-4.74l.4.4a14.244,14.244,0,0,1-2.16,3.8A11.148,11.148,0,0,1-74.66.28a5.609,5.609,0,0,1-2.94.92A2.617,2.617,0,0,1-79.78.32a3.019,3.019,0,0,1-.7-1.92,4.124,4.124,0,0,1,.04-.54q.04-.3.08-.62A19.633,19.633,0,0,1-83.5.72,4.559,4.559,0,0,1-86.4,1.88Zm22.44-.84A3.033,3.033,0,0,1-66.1.32a2.44,2.44,0,0,1-.78-1.88,6.452,6.452,0,0,1,.56-2.52q.56-1.32,1.1-2.62a6.187,6.187,0,0,0,.54-2.34,2.339,2.339,0,0,0-.74-1.9q-.74-.62-1.5-1.14-.92,2.36-1.92,4.48t-1.64,3.2l-.36-.68q.56-1.04,1.46-3.04t1.78-4.56a1.309,1.309,0,0,1-.4-.96,2.828,2.828,0,0,1,.68-1.96q.68-.76,1-.76a.436.436,0,0,1,.5.38,4.032,4.032,0,0,1,.06.58,2.832,2.832,0,0,1-.22.78,3.31,3.31,0,0,0-.22.7,1.287,1.287,0,0,0,.62,1.02q.62.46,1.42,1.04a6.724,6.724,0,0,1,1.42,1.4,3.386,3.386,0,0,1,.62,2.1,6.493,6.493,0,0,1-.5,2.44q-.5,1.24-1,2.36a4.932,4.932,0,0,0-.5,1.96,1.08,1.08,0,0,0,.36.96,1.479,1.479,0,0,0,.84.24A3.9,3.9,0,0,0-60.94-1a10.756,10.756,0,0,0,1.98-1.52,15.585,15.585,0,0,0,1.72-1.94,8.88,8.88,0,0,0,1.12-1.9l.52.4a15.092,15.092,0,0,1-2.08,3.3A12.522,12.522,0,0,1-60.62,0,6.105,6.105,0,0,1-63.96,1.04Zm11.32.72A4.705,4.705,0,0,1-56.3.42a4.721,4.721,0,0,1-1.22-3.3,9.27,9.27,0,0,1,.9-3.8,15.747,15.747,0,0,1,2.4-3.76,13.794,13.794,0,0,1,3.3-2.86,6.8,6.8,0,0,1,3.56-1.1,3.183,3.183,0,0,1,1.7.48,2.129,2.129,0,0,1,.78,1.96,5.038,5.038,0,0,1-.9,2.86,9.3,9.3,0,0,1-2.36,2.38,14.116,14.116,0,0,1-3.2,1.7,13.174,13.174,0,0,1-3.46.82q-.08.4-.12.76a6.171,6.171,0,0,0-.04.68,5.265,5.265,0,0,0,.14,1.2,3.051,3.051,0,0,0,.5,1.1,2.388,2.388,0,0,0,.98.78A3.741,3.741,0,0,0-51.8.6a6.683,6.683,0,0,0,3.4-.98,13.063,13.063,0,0,0,3.12-2.58,16.931,16.931,0,0,0,2.44-3.52l.48.36A14.931,14.931,0,0,1-45.1-1.96,13.039,13.039,0,0,1-48.7.78,8.653,8.653,0,0,1-52.64,1.76ZM-54.6-4.96a17.6,17.6,0,0,0,2.44-1.06,17.642,17.642,0,0,0,2.62-1.66A9.761,9.761,0,0,0-47.46-9.8a4.161,4.161,0,0,0,.82-2.44,1.221,1.221,0,0,0-.16-.68.773.773,0,0,0-.68-.24,3.654,3.654,0,0,0-2.04.74,10.375,10.375,0,0,0-2.08,1.94,17.025,17.025,0,0,0-1.8,2.64A13.22,13.22,0,0,0-54.6-4.96ZM-20.32.8a2.8,2.8,0,0,1-2.1-.72,2.53,2.53,0,0,1-.7-1.84,5.674,5.674,0,0,1,.3-1.76q.3-.92.58-1.9a6.9,6.9,0,0,0,.28-1.9,2.043,2.043,0,0,0-.46-1.54,1.628,1.628,0,0,0-1.14-.42,4.066,4.066,0,0,0-2.52,1.02,14.547,14.547,0,0,0-2.48,2.6q-1.2,1.58-2.24,3.26t-1.84,3A3.411,3.411,0,0,1-33.86.38a1.92,1.92,0,0,1-.9-.66,5.856,5.856,0,0,1,.42-1.24q.42-1.04.98-2.56t1-3.12a11.1,11.1,0,0,0,.44-2.92,2.666,2.666,0,0,1,.76-.56,2.249,2.249,0,0,1,1.08-.28q1.08,0,1.08,1.04a10.632,10.632,0,0,1-.36,2.14q-.36,1.5-.92,3.14A37.364,37.364,0,0,1-27.86-7.9,15.034,15.034,0,0,1-25-10.6a5.225,5.225,0,0,1,3.04-1.08,2.463,2.463,0,0,1,2.26,1.12A4.586,4.586,0,0,1-19-8.08a6.463,6.463,0,0,1-.4,2.3q-.4,1.06-.82,2.04a4.986,4.986,0,0,0-.42,1.98A1.642,1.642,0,0,0-20.3-.58a1.166,1.166,0,0,0,.86.34,2.955,2.955,0,0,0,2-.94A13.01,13.01,0,0,0-15.5-3.56a26.755,26.755,0,0,0,1.66-2.92l.44.52a20.334,20.334,0,0,1-1.88,3.48,9.4,9.4,0,0,1-2.28,2.4A4.659,4.659,0,0,1-20.32.8Zm8.48.48A2.733,2.733,0,0,1-14.28.22,4.483,4.483,0,0,1-15-2.36a8.809,8.809,0,0,1,.4-2.56A12.081,12.081,0,0,1-13.54-7.4a7.225,7.225,0,0,1,1.48-1.88A2.52,2.52,0,0,1-10.4-10a1.6,1.6,0,0,1,.42.06,3.876,3.876,0,0,1,.42.14,5.065,5.065,0,0,0-.86,1.18,14.955,14.955,0,0,0-.94,1.96,21.02,21.02,0,0,0-.74,2.18,7.068,7.068,0,0,0-.3,1.84A2.963,2.963,0,0,0-12-.9a1.238,1.238,0,0,0,1.04.54,3.5,3.5,0,0,0,2-.9,13.8,13.8,0,0,0,2.28-2.3A6.054,6.054,0,0,1-8.42-5.98a7.943,7.943,0,0,1-.62-3.06,6.666,6.666,0,0,1,.46-2.48,4.383,4.383,0,0,1,1.34-1.86,3.3,3.3,0,0,1,2.12-.7,2.416,2.416,0,0,1,2.2.88A4.023,4.023,0,0,1-2.36-11a9.413,9.413,0,0,1-.76,3.46A20.423,20.423,0,0,1-5.04-3.88a3.084,3.084,0,0,0,1.52.4,4.713,4.713,0,0,0,1.44-.26A4.893,4.893,0,0,0-.5-4.64,4.583,4.583,0,0,0,.76-6.36l.48.4A5.148,5.148,0,0,1-1.02-3.3a5.914,5.914,0,0,1-2.78.78,4.892,4.892,0,0,1-1-.1,4.37,4.37,0,0,1-.92-.3A14.785,14.785,0,0,1-8.7.08,5.312,5.312,0,0,1-11.84,1.28ZM-5.96-4.6A16.947,16.947,0,0,0-4.3-7.7a8.125,8.125,0,0,0,.66-3.06,3.282,3.282,0,0,0-.34-1.7A1,1,0,0,0-4.84-13q-.8,0-1.64,1.16a4.851,4.851,0,0,0-.84,2.92,8.42,8.42,0,0,0,.34,2.34A5.259,5.259,0,0,0-5.96-4.6Z" transform="translate(1074.5 302) rotate(-90)" fill="#fff"/>
      <path id="Path_3817" data-name="Path 3817" d="M19.8,3.48a3.3,3.3,0,0,1-2.04-1.04A19.557,19.557,0,0,1,15.3-.32Q14-2.04,12.74-4.06T10.42-8.08q-1.06-2-1.78-3.56L4.76.92a2.227,2.227,0,0,1-.88,1.3,3.047,3.047,0,0,1-1.3.46,12.147,12.147,0,0,1-1.38.08Q1.72,1.64,2.26.2T3.54-3.28q.74-2.04,1.74-4.96t2.38-6.98q1.38-4.06,3.26-9.54.12-.32.32-.9a3.278,3.278,0,0,0,.2-1.06,1.12,1.12,0,0,0-.2-.7.915.915,0,0,0-.76-.26,2.823,2.823,0,0,0-1.86.78,7.764,7.764,0,0,0-1.6,1.98,12.038,12.038,0,0,0-1.1,2.48,7.753,7.753,0,0,0-.4,2.28,4.291,4.291,0,0,0,.2,1.36,2.283,2.283,0,0,1-1.86-.66,2.475,2.475,0,0,1-.54-1.62,5.325,5.325,0,0,1,.8-2.72,10.66,10.66,0,0,1,2.06-2.5,11.554,11.554,0,0,1,2.64-1.82,5.744,5.744,0,0,1,2.5-.68,1.6,1.6,0,0,1,1.46.6,2.418,2.418,0,0,1,.38,1.32,3.96,3.96,0,0,1-.1.88q-.1.44-.22.84L9.48-14.28a6.654,6.654,0,0,1,1.46-1.48q.9-.68,1.98-1.56,1.8-1.44,3.86-3.36t3.94-4.04a32.049,32.049,0,0,0,3.12-4.08,1.7,1.7,0,0,1,.28.84,7.514,7.514,0,0,1,.08.92,4.908,4.908,0,0,1-1.02,2.72,20.409,20.409,0,0,1-2.66,3.06,47.323,47.323,0,0,1-3.6,3.12q-1.96,1.54-3.86,2.9T9.64-12.88q1.2,2.04,2.34,3.88t2.48,3.6A38.779,38.779,0,0,0,17.6-1.8a56.919,56.919,0,0,0,4.36,3.96,2.612,2.612,0,0,1-.88.92A2.267,2.267,0,0,1,19.8,3.48Zm7.56-1.72A4.705,4.705,0,0,1,23.7.42a4.721,4.721,0,0,1-1.22-3.3,9.27,9.27,0,0,1,.9-3.8,15.747,15.747,0,0,1,2.4-3.76,13.794,13.794,0,0,1,3.3-2.86,6.8,6.8,0,0,1,3.56-1.1,3.183,3.183,0,0,1,1.7.48,2.129,2.129,0,0,1,.78,1.96,5.038,5.038,0,0,1-.9,2.86,9.3,9.3,0,0,1-2.36,2.38,14.116,14.116,0,0,1-3.2,1.7,13.174,13.174,0,0,1-3.46.82q-.08.4-.12.76a6.172,6.172,0,0,0-.04.68,5.265,5.265,0,0,0,.14,1.2,3.051,3.051,0,0,0,.5,1.1,2.388,2.388,0,0,0,.98.78A3.741,3.741,0,0,0,28.2.6a6.683,6.683,0,0,0,3.4-.98,13.064,13.064,0,0,0,3.12-2.58,16.931,16.931,0,0,0,2.44-3.52l.48.36A14.931,14.931,0,0,1,34.9-1.96,13.039,13.039,0,0,1,31.3.78,8.653,8.653,0,0,1,27.36,1.76ZM25.4-4.96a17.6,17.6,0,0,0,2.44-1.06,17.642,17.642,0,0,0,2.62-1.66A9.761,9.761,0,0,0,32.54-9.8a4.161,4.161,0,0,0,.82-2.44,1.221,1.221,0,0,0-.16-.68.773.773,0,0,0-.68-.24,3.654,3.654,0,0,0-2.04.74,10.375,10.375,0,0,0-2.08,1.94,17.025,17.025,0,0,0-1.8,2.64A13.22,13.22,0,0,0,25.4-4.96Zm17.88,6A3.033,3.033,0,0,1,41.14.32a2.44,2.44,0,0,1-.78-1.88,6.452,6.452,0,0,1,.56-2.52q.56-1.32,1.1-2.62a6.187,6.187,0,0,0,.54-2.34,2.339,2.339,0,0,0-.74-1.9q-.74-.62-1.5-1.14Q39.4-9.72,38.4-7.6T36.76-4.4l-.36-.68q.56-1.04,1.46-3.04t1.78-4.56a1.309,1.309,0,0,1-.4-.96,2.828,2.828,0,0,1,.68-1.96q.68-.76,1-.76a.436.436,0,0,1,.5.38,4.032,4.032,0,0,1,.06.58,2.832,2.832,0,0,1-.22.78,3.31,3.31,0,0,0-.22.7,1.287,1.287,0,0,0,.62,1.02q.62.46,1.42,1.04a6.724,6.724,0,0,1,1.42,1.4,3.386,3.386,0,0,1,.62,2.1,6.493,6.493,0,0,1-.5,2.44q-.5,1.24-1,2.36a4.932,4.932,0,0,0-.5,1.96,1.08,1.08,0,0,0,.36.96,1.479,1.479,0,0,0,.84.24A3.9,3.9,0,0,0,46.3-1a10.756,10.756,0,0,0,1.98-1.52A15.585,15.585,0,0,0,50-4.46a8.88,8.88,0,0,0,1.12-1.9l.52.4a15.092,15.092,0,0,1-2.08,3.3A12.522,12.522,0,0,1,46.62,0,6.105,6.105,0,0,1,43.28,1.04Zm8.92.84a2.929,2.929,0,0,1-2.1-.82,3.3,3.3,0,0,1-.86-2.5,8.651,8.651,0,0,1,.64-3.1,15.724,15.724,0,0,1,1.76-3.28,18.6,18.6,0,0,1,2.54-2.96,12.809,12.809,0,0,1,3-2.14,6.9,6.9,0,0,1,3.14-.8,4.07,4.07,0,0,1,2.6.82,2.637,2.637,0,0,1,1.04,2.18,1.52,1.52,0,0,1-.54,1.36A2.519,2.519,0,0,1,62-9q.08-.32.14-.7a4.513,4.513,0,0,0,.06-.7,2.782,2.782,0,0,0-.44-1.58,1.69,1.69,0,0,0-1.52-.66,4.081,4.081,0,0,0-2.28.78,10.758,10.758,0,0,0-2.24,2.08A18.1,18.1,0,0,0,53.8-6.96a17.164,17.164,0,0,0-1.32,3A8.679,8.679,0,0,0,52-1.32Q52,.24,53.08.24a3.313,3.313,0,0,0,2-.86,16.328,16.328,0,0,0,2.22-2.2q1.14-1.34,2.18-2.78t1.84-2.64q.16-.24.2-.24a4.76,4.76,0,0,1,.62.16A2.338,2.338,0,0,1,62.8-8a.612.612,0,0,1,.28.52,2.16,2.16,0,0,1-.36.98q-.36.62-.8,1.42t-.8,1.62a3.844,3.844,0,0,0-.36,1.54,2.417,2.417,0,0,0,.32,1.18,1.1,1.1,0,0,0,1.04.58,4.951,4.951,0,0,0,2.84-1.58,19.055,19.055,0,0,0,3.56-4.74l.4.4a14.244,14.244,0,0,1-2.16,3.8A11.148,11.148,0,0,1,63.94.28,5.609,5.609,0,0,1,61,1.2,2.617,2.617,0,0,1,58.82.32a3.019,3.019,0,0,1-.7-1.92,4.125,4.125,0,0,1,.04-.54q.04-.3.08-.62A19.632,19.632,0,0,1,55.1.72,4.56,4.56,0,0,1,52.2,1.88ZM71.04,1.2A2.678,2.678,0,0,1,68.58.02a5.436,5.436,0,0,1-.74-2.94,17.727,17.727,0,0,1,.72-4.56,50.053,50.053,0,0,1,1.9-5.56q1.18-2.92,2.58-5.7t2.8-5.06a28.005,28.005,0,0,1,2.58-3.64q1.18-1.36,1.86-1.36a.823.823,0,0,1,.72.5,4.508,4.508,0,0,1,.44,1.2,5.712,5.712,0,0,1,.16,1.26,10.027,10.027,0,0,1-.54,2.82,32.814,32.814,0,0,1-1.52,3.88,40.332,40.332,0,0,1-2.32,4.32,43.394,43.394,0,0,1-2.92,4.18A22.184,22.184,0,0,1,70.96-7.2q-.24,1.08-.38,2.1a14.288,14.288,0,0,0-.14,1.94,4.765,4.765,0,0,0,.44,2.32,1.431,1.431,0,0,0,1.32.76,3.2,3.2,0,0,0,2.14-.96,12.013,12.013,0,0,0,2-2.42,21.281,21.281,0,0,0,1.62-3.02l.6.32A20.391,20.391,0,0,1,75.08-.78,5.538,5.538,0,0,1,71.04,1.2Zm.28-9.76a26.76,26.76,0,0,0,2.72-3.22,44.786,44.786,0,0,0,2.46-3.78q1.14-1.96,2.02-3.8a28.194,28.194,0,0,0,1.36-3.3,7.864,7.864,0,0,0,.48-2.26.9.9,0,0,0-.1-.52q-.1-.12-.18-.12-.32,0-1.1,1.02a31.324,31.324,0,0,0-1.82,2.74q-1.04,1.72-2.12,3.92t-2.06,4.6A48.822,48.822,0,0,0,71.32-8.56ZM79.08,1.88a2.929,2.929,0,0,1-2.1-.82,3.3,3.3,0,0,1-.86-2.5,8.651,8.651,0,0,1,.64-3.1,15.724,15.724,0,0,1,1.76-3.28,18.6,18.6,0,0,1,2.54-2.96,12.809,12.809,0,0,1,3-2.14,6.9,6.9,0,0,1,3.14-.8,4.07,4.07,0,0,1,2.6.82,2.637,2.637,0,0,1,1.04,2.18,1.52,1.52,0,0,1-.54,1.36A2.519,2.519,0,0,1,88.88-9q.08-.32.14-.7a4.513,4.513,0,0,0,.06-.7,2.782,2.782,0,0,0-.44-1.58,1.69,1.69,0,0,0-1.52-.66,4.081,4.081,0,0,0-2.28.78A10.758,10.758,0,0,0,82.6-9.78a18.1,18.1,0,0,0-1.92,2.82,17.165,17.165,0,0,0-1.32,3,8.678,8.678,0,0,0-.48,2.64q0,1.56,1.08,1.56a3.313,3.313,0,0,0,2-.86,16.329,16.329,0,0,0,2.22-2.2q1.14-1.34,2.18-2.78T88.2-8.24q.16-.24.2-.24a4.761,4.761,0,0,1,.62.16,2.338,2.338,0,0,1,.66.32.612.612,0,0,1,.28.52,2.16,2.16,0,0,1-.36.98q-.36.62-.8,1.42T88-3.46a3.844,3.844,0,0,0-.36,1.54,2.417,2.417,0,0,0,.32,1.18A1.1,1.1,0,0,0,89-.16a4.951,4.951,0,0,0,2.84-1.58A19.055,19.055,0,0,0,95.4-6.48l.4.4a14.244,14.244,0,0,1-2.16,3.8A11.148,11.148,0,0,1,90.82.28a5.609,5.609,0,0,1-2.94.92A2.617,2.617,0,0,1,85.7.32,3.019,3.019,0,0,1,85-1.6a4.125,4.125,0,0,1,.04-.54q.04-.3.08-.62A19.633,19.633,0,0,1,81.98.72,4.559,4.559,0,0,1,79.08,1.88Z" transform="translate(1171.146 452) rotate(-90)" fill="#fff"/>
    </g>
    <path id="Path_325" data-name="Path 325" d="M2.747,5.491A2.746,2.746,0,1,0,0,2.747,2.744,2.744,0,0,0,2.747,5.491Z" transform="translate(934.896 364.823) rotate(-90)" fill="#3e7aca" opacity="0.2"/>
    <path id="Path_326" data-name="Path 326" d="M2.747,5.491A2.746,2.746,0,1,0,0,2.747,2.744,2.744,0,0,0,2.747,5.491Z" transform="translate(934.896 333.876) rotate(-90)" fill="#3e7aca" opacity="0.2"/>
    <path id="Path_327" data-name="Path 327" d="M2.747,5.491A2.746,2.746,0,1,0,0,2.747,2.744,2.744,0,0,0,2.747,5.491Z" transform="translate(934.896 302.928) rotate(-90)" fill="#3e7aca" opacity="0.2"/>
    <path id="Path_328" data-name="Path 328" d="M2.744,5.491A2.746,2.746,0,1,0,0,2.747,2.744,2.744,0,0,0,2.744,5.491Z" transform="translate(934.896 271.979) rotate(-90)" fill="#3e7aca" opacity="0.2"/>
    <path id="Path_329" data-name="Path 329" d="M2.747,5.491A2.746,2.746,0,1,0,0,2.747,2.746,2.746,0,0,0,2.747,5.491Z" transform="translate(934.896 241.033) rotate(-90)" fill="#3e7aca" opacity="0.2"/>
    <path id="Path_330" data-name="Path 330" d="M2.747,5.491A2.746,2.746,0,1,0,0,2.747,2.744,2.744,0,0,0,2.747,5.491Z" transform="translate(934.896 210.086) rotate(-90)" fill="#3e7aca" opacity="0.2"/>
    <path id="Path_331" data-name="Path 331" d="M2.747,5.491A2.746,2.746,0,1,0,0,2.747,2.744,2.744,0,0,0,2.747,5.491Z" transform="translate(934.896 179.138) rotate(-90)" fill="#3e7aca" opacity="0.2"/>
    <path id="Path_332" data-name="Path 332" d="M2.747,5.491A2.746,2.746,0,1,0,0,2.747,2.744,2.744,0,0,0,2.747,5.491Z" transform="translate(934.896 148.191) rotate(-90)" fill="#3e7aca" opacity="0.2"/>
    <path id="Path_335" data-name="Path 335" d="M2.744,5.491A2.746,2.746,0,1,0,0,2.747,2.744,2.744,0,0,0,2.744,5.491Z" transform="translate(965.843 364.826) rotate(-90)" fill="#3e7aca" opacity="0.3"/>
    <path id="Path_336" data-name="Path 336" d="M2.747,5.491A2.746,2.746,0,1,0,0,2.747,2.746,2.746,0,0,0,2.747,5.491Z" transform="translate(965.843 333.88) rotate(-90)" fill="#3e7aca" opacity="0.3"/>
    <path id="Path_337" data-name="Path 337" d="M2.747,5.491A2.746,2.746,0,1,0,0,2.747,2.744,2.744,0,0,0,2.747,5.491Z" transform="translate(965.843 302.933) rotate(-90)" fill="#3e7aca" opacity="0.3"/>
    <path id="Path_338" data-name="Path 338" d="M2.747,5.491A2.746,2.746,0,1,0,0,2.747,2.744,2.744,0,0,0,2.747,5.491Z" transform="translate(965.843 271.985) rotate(-90)" fill="#3e7aca" opacity="0.3"/>
    <path id="Path_339" data-name="Path 339" d="M2.747,5.491A2.746,2.746,0,1,0,0,2.747,2.744,2.744,0,0,0,2.747,5.491Z" transform="translate(965.843 241.038) rotate(-90)" fill="#3e7aca" opacity="0.3"/>
    <path id="Path_340" data-name="Path 340" d="M2.744,5.491A2.746,2.746,0,1,0,0,2.747,2.744,2.744,0,0,0,2.744,5.491Z" transform="translate(965.843 210.088) rotate(-90)" fill="#3e7aca" opacity="0.3"/>
    <path id="Path_341" data-name="Path 341" d="M2.747,5.491A2.746,2.746,0,1,0,0,2.747,2.746,2.746,0,0,0,2.747,5.491Z" transform="translate(965.843 179.143) rotate(-90)" fill="#3e7aca" opacity="0.3"/>
    <path id="Path_342" data-name="Path 342" d="M2.747,5.491A2.746,2.746,0,1,0,0,2.747,2.744,2.744,0,0,0,2.747,5.491Z" transform="translate(965.843 148.195) rotate(-90)" fill="#3e7aca" opacity="0.3"/>
    <path id="Path_345" data-name="Path 345" d="M2.747,5.493A2.747,2.747,0,1,0,0,2.747,2.747,2.747,0,0,0,2.747,5.493Z" transform="translate(996.791 364.823) rotate(-90)" fill="#3e7aca" opacity="0.4"/>
    <circle id="Ellipse_19" data-name="Ellipse 19" cx="2.747" cy="2.747" r="2.747" transform="translate(996.79 333.875) rotate(-90)" fill="#3e7aca" opacity="0.4"/>
    <path id="Path_346" data-name="Path 346" d="M2.747,5.493A2.747,2.747,0,1,0,0,2.747,2.747,2.747,0,0,0,2.747,5.493Z" transform="translate(996.791 302.928) rotate(-90)" fill="#3e7aca" opacity="0.4"/>
    <path id="Path_347" data-name="Path 347" d="M2.744,5.493A2.747,2.747,0,1,0,0,2.747,2.747,2.747,0,0,0,2.744,5.493Z" transform="translate(996.791 271.979) rotate(-90)" fill="#3e7aca" opacity="0.4"/>
    <path id="Path_348" data-name="Path 348" d="M2.747,5.493A2.747,2.747,0,1,0,0,2.747,2.749,2.749,0,0,0,2.747,5.493Z" transform="translate(996.791 241.033) rotate(-90)" fill="#3e7aca" opacity="0.4"/>
    <path id="Path_349" data-name="Path 349" d="M2.747,5.493A2.747,2.747,0,1,0,0,2.747,2.747,2.747,0,0,0,2.747,5.493Z" transform="translate(996.791 210.086) rotate(-90)" fill="#3e7aca" opacity="0.4"/>
    <circle id="Ellipse_20" data-name="Ellipse 20" cx="2.747" cy="2.747" r="2.747" transform="translate(996.79 179.138) rotate(-90)" fill="#3e7aca" opacity="0.4"/>
    <path id="Path_350" data-name="Path 350" d="M2.747,5.493A2.747,2.747,0,1,0,0,2.747,2.747,2.747,0,0,0,2.747,5.493Z" transform="translate(996.791 148.191) rotate(-90)" fill="#3e7aca" opacity="0.4"/>
    <path id="Path_352" data-name="Path 352" d="M2.744,5.493A2.747,2.747,0,1,0,0,2.747,2.747,2.747,0,0,0,2.744,5.493Z" transform="translate(1027.738 364.826) rotate(-90)" fill="#3e7aca" opacity="0.5"/>
    <path id="Path_353" data-name="Path 353" d="M2.747,5.493A2.747,2.747,0,1,0,0,2.747,2.749,2.749,0,0,0,2.747,5.493Z" transform="translate(1027.738 333.88) rotate(-90)" fill="#3e7aca" opacity="0.5"/>
    <path id="Path_354" data-name="Path 354" d="M2.747,5.493A2.747,2.747,0,1,0,0,2.747,2.747,2.747,0,0,0,2.747,5.493Z" transform="translate(1027.738 302.933) rotate(-90)" fill="#3e7aca" opacity="0.5"/>
    <circle id="Ellipse_22" data-name="Ellipse 22" cx="2.747" cy="2.747" r="2.747" transform="translate(1027.737 271.985) rotate(-90)" fill="#3e7aca" opacity="0.5"/>
    <path id="Path_355" data-name="Path 355" d="M2.747,5.493A2.747,2.747,0,1,0,0,2.747,2.747,2.747,0,0,0,2.747,5.493Z" transform="translate(1027.738 241.038) rotate(-90)" fill="#3e7aca" opacity="0.5"/>
    <path id="Path_356" data-name="Path 356" d="M2.744,5.493A2.747,2.747,0,1,0,0,2.747,2.747,2.747,0,0,0,2.744,5.493Z" transform="translate(1027.738 210.088) rotate(-90)" fill="#3e7aca" opacity="0.5"/>
    <path id="Path_357" data-name="Path 357" d="M2.747,5.493A2.747,2.747,0,1,0,0,2.747,2.749,2.749,0,0,0,2.747,5.493Z" transform="translate(1027.738 179.143) rotate(-90)" fill="#3e7aca" opacity="0.5"/>
    <path id="Path_358" data-name="Path 358" d="M2.747,5.493A2.747,2.747,0,1,0,0,2.747,2.747,2.747,0,0,0,2.747,5.493Z" transform="translate(1027.738 148.195) rotate(-90)" fill="#3e7aca" opacity="0.5"/>
    <path id="Path_361" data-name="Path 361" d="M2.747,5.493A2.747,2.747,0,1,0,0,2.747,2.747,2.747,0,0,0,2.747,5.493Z" transform="translate(1058.685 364.823) rotate(-90)" fill="#3e7aca" opacity="0.6"/>
    <path id="Path_362" data-name="Path 362" d="M2.747,5.493A2.747,2.747,0,1,0,0,2.747,2.747,2.747,0,0,0,2.747,5.493Z" transform="translate(1058.685 333.876) rotate(-90)" fill="#3e7aca" opacity="0.6"/>
    <path id="Path_363" data-name="Path 363" d="M2.747,5.493A2.747,2.747,0,1,0,0,2.747,2.747,2.747,0,0,0,2.747,5.493Z" transform="translate(1058.685 302.928) rotate(-90)" fill="#3e7aca" opacity="0.6"/>
    <path id="Path_364" data-name="Path 364" d="M2.744,5.493A2.747,2.747,0,1,0,0,2.747,2.747,2.747,0,0,0,2.744,5.493Z" transform="translate(1058.685 271.979) rotate(-90)" fill="#3e7aca" opacity="0.6"/>
    <path id="Path_365" data-name="Path 365" d="M2.747,5.493A2.747,2.747,0,1,0,0,2.747,2.749,2.749,0,0,0,2.747,5.493Z" transform="translate(1058.685 241.033) rotate(-90)" fill="#3e7aca" opacity="0.6"/>
    <path id="Path_366" data-name="Path 366" d="M2.747,5.493A2.747,2.747,0,1,0,0,2.747,2.747,2.747,0,0,0,2.747,5.493Z" transform="translate(1058.685 210.086) rotate(-90)" fill="#3e7aca" opacity="0.6"/>
    <path id="Path_367" data-name="Path 367" d="M2.747,5.493A2.747,2.747,0,1,0,0,2.747,2.747,2.747,0,0,0,2.747,5.493Z" transform="translate(1058.685 179.138) rotate(-90)" fill="#3e7aca" opacity="0.6"/>
    <path id="Path_368" data-name="Path 368" d="M2.747,5.493A2.747,2.747,0,1,0,0,2.747,2.747,2.747,0,0,0,2.747,5.493Z" transform="translate(1058.685 148.191) rotate(-90)" fill="#3e7aca" opacity="0.6"/>
    <path id="Path_371" data-name="Path 371" d="M2.744,5.493A2.747,2.747,0,1,0,0,2.747,2.746,2.746,0,0,0,2.744,5.493Z" transform="translate(1089.633 364.826) rotate(-90)" fill="#3e7aca" opacity="0.8"/>
    <path id="Path_372" data-name="Path 372" d="M2.747,5.493A2.747,2.747,0,1,0,0,2.747,2.748,2.748,0,0,0,2.747,5.493Z" transform="translate(1089.633 333.88) rotate(-90)" fill="#3e7aca" opacity="0.8"/>
    <path id="Path_373" data-name="Path 373" d="M2.747,5.493A2.747,2.747,0,1,0,0,2.747,2.746,2.746,0,0,0,2.747,5.493Z" transform="translate(1089.633 302.933) rotate(-90)" fill="#3e7aca" opacity="0.8"/>
    <path id="Path_374" data-name="Path 374" d="M2.747,5.493A2.747,2.747,0,1,0,0,2.747,2.746,2.746,0,0,0,2.747,5.493Z" transform="translate(1089.633 271.985) rotate(-90)" fill="#3e7aca" opacity="0.8"/>
    <path id="Path_375" data-name="Path 375" d="M2.747,5.493A2.747,2.747,0,1,0,0,2.747,2.746,2.746,0,0,0,2.747,5.493Z" transform="translate(1089.633 241.038) rotate(-90)" fill="#3e7aca" opacity="0.8"/>
    <path id="Path_376" data-name="Path 376" d="M2.744,5.493A2.747,2.747,0,1,0,0,2.747,2.746,2.746,0,0,0,2.744,5.493Z" transform="translate(1089.633 210.088) rotate(-90)" fill="#3e7aca" opacity="0.8"/>
    <path id="Path_377" data-name="Path 377" d="M2.747,5.493A2.747,2.747,0,1,0,0,2.747,2.747,2.747,0,0,0,2.747,5.493Z" transform="translate(1089.633 179.143) rotate(-90)" fill="#3e7aca" opacity="0.8"/>
    <path id="Path_378" data-name="Path 378" d="M2.747,5.493A2.747,2.747,0,1,0,0,2.747,2.746,2.746,0,0,0,2.747,5.493Z" transform="translate(1089.633 148.195) rotate(-90)" fill="#3e7aca" opacity="0.8"/>
    <path id="Path_381" data-name="Path 381" d="M2.747,5.491A2.746,2.746,0,1,0,0,2.747,2.744,2.744,0,0,0,2.747,5.491Z" transform="translate(1120.58 364.823) rotate(-90)" fill="#3e7aca"/>
    <path id="Path_382" data-name="Path 382" d="M2.747,5.491A2.746,2.746,0,1,0,0,2.747,2.744,2.744,0,0,0,2.747,5.491Z" transform="translate(1120.58 333.876) rotate(-90)" fill="#3e7aca"/>
    <path id="Path_383" data-name="Path 383" d="M2.747,5.491A2.746,2.746,0,1,0,0,2.747,2.744,2.744,0,0,0,2.747,5.491Z" transform="translate(1120.58 302.928) rotate(-90)" fill="#3e7aca"/>
    <path id="Path_384" data-name="Path 384" d="M2.744,5.491A2.746,2.746,0,1,0,0,2.747,2.744,2.744,0,0,0,2.744,5.491Z" transform="translate(1120.58 271.979) rotate(-90)" fill="#3e7aca"/>
    <path id="Path_385" data-name="Path 385" d="M2.747,5.491A2.746,2.746,0,1,0,0,2.747,2.746,2.746,0,0,0,2.747,5.491Z" transform="translate(1120.58 241.033) rotate(-90)" fill="#3e7aca"/>
    <path id="Path_386" data-name="Path 386" d="M2.747,5.491A2.746,2.746,0,1,0,0,2.747,2.744,2.744,0,0,0,2.747,5.491Z" transform="translate(1120.58 210.086) rotate(-90)" fill="#3e7aca"/>
    <path id="Path_387" data-name="Path 387" d="M2.747,5.491A2.746,2.746,0,1,0,0,2.747,2.744,2.744,0,0,0,2.747,5.491Z" transform="translate(1120.58 179.138) rotate(-90)" fill="#3e7aca"/>
    <path id="Path_388" data-name="Path 388" d="M2.747,5.491A2.746,2.746,0,1,0,0,2.747,2.744,2.744,0,0,0,2.747,5.491Z" transform="translate(1120.58 148.191) rotate(-90)" fill="#3e7aca"/>
    <path id="Path_326-2" data-name="Path 326" d="M2.747,5.491A2.746,2.746,0,1,0,0,2.747,2.744,2.744,0,0,0,2.747,5.491Z" transform="translate(934.896 577.876) rotate(-90)" fill="#3e7aca" opacity="0.2"/>
    <path id="Path_327-2" data-name="Path 327" d="M2.747,5.491A2.746,2.746,0,1,0,0,2.747,2.744,2.744,0,0,0,2.747,5.491Z" transform="translate(934.896 546.928) rotate(-90)" fill="#3e7aca" opacity="0.2"/>
    <path id="Path_328-2" data-name="Path 328" d="M2.744,5.491A2.746,2.746,0,1,0,0,2.747,2.744,2.744,0,0,0,2.744,5.491Z" transform="translate(934.896 515.979) rotate(-90)" fill="#3e7aca" opacity="0.2"/>
    <path id="Path_329-2" data-name="Path 329" d="M2.747,5.491A2.746,2.746,0,1,0,0,2.747,2.746,2.746,0,0,0,2.747,5.491Z" transform="translate(934.896 485.033) rotate(-90)" fill="#3e7aca" opacity="0.2"/>
    <path id="Path_330-2" data-name="Path 330" d="M2.747,5.491A2.746,2.746,0,1,0,0,2.747,2.744,2.744,0,0,0,2.747,5.491Z" transform="translate(934.896 454.086) rotate(-90)" fill="#3e7aca" opacity="0.2"/>
    <path id="Path_331-2" data-name="Path 331" d="M2.747,5.491A2.746,2.746,0,1,0,0,2.747,2.744,2.744,0,0,0,2.747,5.491Z" transform="translate(934.896 423.138) rotate(-90)" fill="#3e7aca" opacity="0.2"/>
    <path id="Path_332-2" data-name="Path 332" d="M2.747,5.491A2.746,2.746,0,1,0,0,2.747,2.744,2.744,0,0,0,2.747,5.491Z" transform="translate(934.896 392.191) rotate(-90)" fill="#3e7aca" opacity="0.2"/>
    <path id="Path_336-2" data-name="Path 336" d="M2.747,5.491A2.746,2.746,0,1,0,0,2.747,2.746,2.746,0,0,0,2.747,5.491Z" transform="translate(965.843 577.88) rotate(-90)" fill="#3e7aca" opacity="0.3"/>
    <path id="Path_337-2" data-name="Path 337" d="M2.747,5.491A2.746,2.746,0,1,0,0,2.747,2.744,2.744,0,0,0,2.747,5.491Z" transform="translate(965.843 546.933) rotate(-90)" fill="#3e7aca" opacity="0.3"/>
    <path id="Path_338-2" data-name="Path 338" d="M2.747,5.491A2.746,2.746,0,1,0,0,2.747,2.744,2.744,0,0,0,2.747,5.491Z" transform="translate(965.843 515.985) rotate(-90)" fill="#3e7aca" opacity="0.3"/>
    <path id="Path_339-2" data-name="Path 339" d="M2.747,5.491A2.746,2.746,0,1,0,0,2.747,2.744,2.744,0,0,0,2.747,5.491Z" transform="translate(965.843 485.038) rotate(-90)" fill="#3e7aca" opacity="0.3"/>
    <path id="Path_340-2" data-name="Path 340" d="M2.744,5.491A2.746,2.746,0,1,0,0,2.747,2.744,2.744,0,0,0,2.744,5.491Z" transform="translate(965.843 454.088) rotate(-90)" fill="#3e7aca" opacity="0.3"/>
    <path id="Path_341-2" data-name="Path 341" d="M2.747,5.491A2.746,2.746,0,1,0,0,2.747,2.746,2.746,0,0,0,2.747,5.491Z" transform="translate(965.843 423.143) rotate(-90)" fill="#3e7aca" opacity="0.3"/>
    <path id="Path_342-2" data-name="Path 342" d="M2.747,5.491A2.746,2.746,0,1,0,0,2.747,2.744,2.744,0,0,0,2.747,5.491Z" transform="translate(965.843 392.195) rotate(-90)" fill="#3e7aca" opacity="0.3"/>
    <circle id="Ellipse_19-2" data-name="Ellipse 19" cx="2.747" cy="2.747" r="2.747" transform="translate(996.79 577.875) rotate(-90)" fill="#3e7aca" opacity="0.4"/>
    <path id="Path_346-2" data-name="Path 346" d="M2.747,5.493A2.747,2.747,0,1,0,0,2.747,2.747,2.747,0,0,0,2.747,5.493Z" transform="translate(996.791 546.928) rotate(-90)" fill="#3e7aca" opacity="0.4"/>
    <path id="Path_347-2" data-name="Path 347" d="M2.744,5.493A2.747,2.747,0,1,0,0,2.747,2.747,2.747,0,0,0,2.744,5.493Z" transform="translate(996.791 515.979) rotate(-90)" fill="#3e7aca" opacity="0.4"/>
    <path id="Path_348-2" data-name="Path 348" d="M2.747,5.493A2.747,2.747,0,1,0,0,2.747,2.749,2.749,0,0,0,2.747,5.493Z" transform="translate(996.791 485.033) rotate(-90)" fill="#3e7aca" opacity="0.4"/>
    <path id="Path_349-2" data-name="Path 349" d="M2.747,5.493A2.747,2.747,0,1,0,0,2.747,2.747,2.747,0,0,0,2.747,5.493Z" transform="translate(996.791 454.086) rotate(-90)" fill="#3e7aca" opacity="0.4"/>
    <circle id="Ellipse_20-2" data-name="Ellipse 20" cx="2.747" cy="2.747" r="2.747" transform="translate(996.79 423.138) rotate(-90)" fill="#3e7aca" opacity="0.4"/>
    <path id="Path_350-2" data-name="Path 350" d="M2.747,5.493A2.747,2.747,0,1,0,0,2.747,2.747,2.747,0,0,0,2.747,5.493Z" transform="translate(996.791 392.191) rotate(-90)" fill="#3e7aca" opacity="0.4"/>
    <path id="Path_353-2" data-name="Path 353" d="M2.747,5.493A2.747,2.747,0,1,0,0,2.747,2.749,2.749,0,0,0,2.747,5.493Z" transform="translate(1027.738 577.88) rotate(-90)" fill="#3e7aca" opacity="0.5"/>
    <path id="Path_354-2" data-name="Path 354" d="M2.747,5.493A2.747,2.747,0,1,0,0,2.747,2.747,2.747,0,0,0,2.747,5.493Z" transform="translate(1027.738 546.933) rotate(-90)" fill="#3e7aca" opacity="0.5"/>
    <circle id="Ellipse_22-2" data-name="Ellipse 22" cx="2.747" cy="2.747" r="2.747" transform="translate(1027.737 515.985) rotate(-90)" fill="#3e7aca" opacity="0.5"/>
    <path id="Path_355-2" data-name="Path 355" d="M2.747,5.493A2.747,2.747,0,1,0,0,2.747,2.747,2.747,0,0,0,2.747,5.493Z" transform="translate(1027.738 485.038) rotate(-90)" fill="#3e7aca" opacity="0.5"/>
    <path id="Path_356-2" data-name="Path 356" d="M2.744,5.493A2.747,2.747,0,1,0,0,2.747,2.747,2.747,0,0,0,2.744,5.493Z" transform="translate(1027.738 454.088) rotate(-90)" fill="#3e7aca" opacity="0.5"/>
    <path id="Path_357-2" data-name="Path 357" d="M2.747,5.493A2.747,2.747,0,1,0,0,2.747,2.749,2.749,0,0,0,2.747,5.493Z" transform="translate(1027.738 423.143) rotate(-90)" fill="#3e7aca" opacity="0.5"/>
    <path id="Path_358-2" data-name="Path 358" d="M2.747,5.493A2.747,2.747,0,1,0,0,2.747,2.747,2.747,0,0,0,2.747,5.493Z" transform="translate(1027.738 392.195) rotate(-90)" fill="#3e7aca" opacity="0.5"/>
    <path id="Path_362-2" data-name="Path 362" d="M2.747,5.493A2.747,2.747,0,1,0,0,2.747,2.747,2.747,0,0,0,2.747,5.493Z" transform="translate(1058.685 577.876) rotate(-90)" fill="#3e7aca" opacity="0.6"/>
    <path id="Path_363-2" data-name="Path 363" d="M2.747,5.493A2.747,2.747,0,1,0,0,2.747,2.747,2.747,0,0,0,2.747,5.493Z" transform="translate(1058.685 546.928) rotate(-90)" fill="#3e7aca" opacity="0.6"/>
    <path id="Path_364-2" data-name="Path 364" d="M2.744,5.493A2.747,2.747,0,1,0,0,2.747,2.747,2.747,0,0,0,2.744,5.493Z" transform="translate(1058.685 515.979) rotate(-90)" fill="#3e7aca" opacity="0.6"/>
    <path id="Path_365-2" data-name="Path 365" d="M2.747,5.493A2.747,2.747,0,1,0,0,2.747,2.749,2.749,0,0,0,2.747,5.493Z" transform="translate(1058.685 485.033) rotate(-90)" fill="#3e7aca" opacity="0.6"/>
    <path id="Path_366-2" data-name="Path 366" d="M2.747,5.493A2.747,2.747,0,1,0,0,2.747,2.747,2.747,0,0,0,2.747,5.493Z" transform="translate(1058.685 454.086) rotate(-90)" fill="#3e7aca" opacity="0.6"/>
    <path id="Path_367-2" data-name="Path 367" d="M2.747,5.493A2.747,2.747,0,1,0,0,2.747,2.747,2.747,0,0,0,2.747,5.493Z" transform="translate(1058.685 423.138) rotate(-90)" fill="#3e7aca" opacity="0.6"/>
    <path id="Path_368-2" data-name="Path 368" d="M2.747,5.493A2.747,2.747,0,1,0,0,2.747,2.747,2.747,0,0,0,2.747,5.493Z" transform="translate(1058.685 392.191) rotate(-90)" fill="#3e7aca" opacity="0.6"/>
    <path id="Path_372-2" data-name="Path 372" d="M2.747,5.493A2.747,2.747,0,1,0,0,2.747,2.748,2.748,0,0,0,2.747,5.493Z" transform="translate(1089.633 577.88) rotate(-90)" fill="#3e7aca" opacity="0.8"/>
    <path id="Path_373-2" data-name="Path 373" d="M2.747,5.493A2.747,2.747,0,1,0,0,2.747,2.746,2.746,0,0,0,2.747,5.493Z" transform="translate(1089.633 546.933) rotate(-90)" fill="#3e7aca" opacity="0.8"/>
    <path id="Path_374-2" data-name="Path 374" d="M2.747,5.493A2.747,2.747,0,1,0,0,2.747,2.746,2.746,0,0,0,2.747,5.493Z" transform="translate(1089.633 515.985) rotate(-90)" fill="#3e7aca" opacity="0.8"/>
    <path id="Path_375-2" data-name="Path 375" d="M2.747,5.493A2.747,2.747,0,1,0,0,2.747,2.746,2.746,0,0,0,2.747,5.493Z" transform="translate(1089.633 485.038) rotate(-90)" fill="#3e7aca" opacity="0.8"/>
    <path id="Path_376-2" data-name="Path 376" d="M2.744,5.493A2.747,2.747,0,1,0,0,2.747,2.746,2.746,0,0,0,2.744,5.493Z" transform="translate(1089.633 454.088) rotate(-90)" fill="#3e7aca" opacity="0.8"/>
    <path id="Path_377-2" data-name="Path 377" d="M2.747,5.493A2.747,2.747,0,1,0,0,2.747,2.747,2.747,0,0,0,2.747,5.493Z" transform="translate(1089.633 423.143) rotate(-90)" fill="#3e7aca" opacity="0.8"/>
    <path id="Path_378-2" data-name="Path 378" d="M2.747,5.493A2.747,2.747,0,1,0,0,2.747,2.746,2.746,0,0,0,2.747,5.493Z" transform="translate(1089.633 392.195) rotate(-90)" fill="#3e7aca" opacity="0.8"/>
    <path id="Path_382-2" data-name="Path 382" d="M2.747,5.491A2.746,2.746,0,1,0,0,2.747,2.744,2.744,0,0,0,2.747,5.491Z" transform="translate(1120.58 577.876) rotate(-90)" fill="#3e7aca"/>
    <path id="Path_383-2" data-name="Path 383" d="M2.747,5.491A2.746,2.746,0,1,0,0,2.747,2.744,2.744,0,0,0,2.747,5.491Z" transform="translate(1120.58 546.928) rotate(-90)" fill="#3e7aca"/>
    <path id="Path_384-2" data-name="Path 384" d="M2.744,5.491A2.746,2.746,0,1,0,0,2.747,2.744,2.744,0,0,0,2.744,5.491Z" transform="translate(1120.58 515.979) rotate(-90)" fill="#3e7aca"/>
    <path id="Path_385-2" data-name="Path 385" d="M2.747,5.491A2.746,2.746,0,1,0,0,2.747,2.746,2.746,0,0,0,2.747,5.491Z" transform="translate(1120.58 485.033) rotate(-90)" fill="#3e7aca"/>
    <path id="Path_386-2" data-name="Path 386" d="M2.747,5.491A2.746,2.746,0,1,0,0,2.747,2.744,2.744,0,0,0,2.747,5.491Z" transform="translate(1120.58 454.086) rotate(-90)" fill="#3e7aca"/>
    <path id="Path_387-2" data-name="Path 387" d="M2.747,5.491A2.746,2.746,0,1,0,0,2.747,2.744,2.744,0,0,0,2.747,5.491Z" transform="translate(1120.58 423.138) rotate(-90)" fill="#3e7aca"/>
    <path id="Path_388-2" data-name="Path 388" d="M2.747,5.491A2.746,2.746,0,1,0,0,2.747,2.744,2.744,0,0,0,2.747,5.491Z" transform="translate(1120.58 392.191) rotate(-90)" fill="#3e7aca"/>
  </g>
</svg>
