<svg xmlns="http://www.w3.org/2000/svg" width="253.071" height="224.604" viewBox="0 0 253.071 224.604"><g transform="translate(-859.489 -1433.504)" opacity="0.06"><path d="M2.747,5.493A2.747,2.747,0,1,0,0,2.747,2.747,2.747,0,0,0,2.747,5.493Z" transform="translate(859.489 1655.63) rotate(-90)" fill="#03488b"/><circle cx="2.747" cy="2.747" r="2.747" transform="translate(859.489 1624.682) rotate(-90)" fill="#03488b"/><path d="M2.747,5.493A2.747,2.747,0,1,0,0,2.747,2.747,2.747,0,0,0,2.747,5.493Z" transform="translate(859.489 1593.735) rotate(-90)" fill="#03488b"/><path d="M2.744,5.493A2.747,2.747,0,1,0,0,2.747,2.747,2.747,0,0,0,2.744,5.493Z" transform="translate(859.489 1562.786) rotate(-90)" fill="#03488b"/><path d="M2.747,5.493A2.747,2.747,0,1,0,0,2.747,2.749,2.749,0,0,0,2.747,5.493Z" transform="translate(859.489 1531.84) rotate(-90)" fill="#03488b"/><path d="M2.747,5.493A2.747,2.747,0,1,0,0,2.747,2.747,2.747,0,0,0,2.747,5.493Z" transform="translate(859.489 1500.892) rotate(-90)" fill="#03488b"/><circle cx="2.747" cy="2.747" r="2.747" transform="translate(859.489 1469.945) rotate(-90)" fill="#03488b"/><path d="M2.747,5.493A2.747,2.747,0,1,0,0,2.747,2.747,2.747,0,0,0,2.747,5.493Z" transform="translate(859.489 1438.998) rotate(-90)" fill="#03488b"/><path d="M2.744,5.493A2.747,2.747,0,1,0,0,2.747,2.747,2.747,0,0,0,2.744,5.493Z" transform="translate(890.437 1658.109) rotate(-90)" fill="#03488b"/><path d="M2.747,5.493A2.747,2.747,0,1,0,0,2.747,2.749,2.749,0,0,0,2.747,5.493Z" transform="translate(890.437 1627.163) rotate(-90)" fill="#03488b"/><path d="M2.747,5.493A2.747,2.747,0,1,0,0,2.747,2.747,2.747,0,0,0,2.747,5.493Z" transform="translate(890.437 1596.216) rotate(-90)" fill="#03488b"/><path d="M2.747,5.493A2.747,2.747,0,1,0,0,2.747,2.747,2.747,0,0,0,2.747,5.493Z" transform="translate(890.437 1565.268) rotate(-90)" fill="#03488b"/><path d="M2.747,5.493A2.747,2.747,0,1,0,0,2.747,2.747,2.747,0,0,0,2.747,5.493Z" transform="translate(890.437 1534.321) rotate(-90)" fill="#03488b"/><path d="M2.744,5.493A2.747,2.747,0,1,0,0,2.747,2.747,2.747,0,0,0,2.744,5.493Z" transform="translate(890.437 1503.371) rotate(-90)" fill="#03488b"/><path d="M2.747,5.493A2.747,2.747,0,1,0,0,2.747,2.749,2.749,0,0,0,2.747,5.493Z" transform="translate(890.437 1472.426) rotate(-90)" fill="#03488b"/><path d="M2.747,5.493A2.747,2.747,0,1,0,0,2.747,2.747,2.747,0,0,0,2.747,5.493Z" transform="translate(890.437 1441.479) rotate(-90)" fill="#03488b"/><path d="M2.747,5.491A2.746,2.746,0,1,0,0,2.747,2.744,2.744,0,0,0,2.747,5.491Z" transform="translate(921.384 1655.63) rotate(-90)" fill="#03488b"/><path d="M2.747,5.491A2.746,2.746,0,1,0,0,2.747,2.744,2.744,0,0,0,2.747,5.491Z" transform="translate(921.384 1624.682) rotate(-90)" fill="#03488b"/><path d="M2.747,5.491A2.746,2.746,0,1,0,0,2.747,2.744,2.744,0,0,0,2.747,5.491Z" transform="translate(921.384 1593.735) rotate(-90)" fill="#03488b"/><path d="M2.744,5.491A2.746,2.746,0,1,0,0,2.747,2.744,2.744,0,0,0,2.744,5.491Z" transform="translate(921.384 1562.786) rotate(-90)" fill="#03488b"/><path d="M2.747,5.491A2.746,2.746,0,1,0,0,2.747,2.746,2.746,0,0,0,2.747,5.491Z" transform="translate(921.384 1531.84) rotate(-90)" fill="#03488b"/><path d="M2.747,5.491A2.746,2.746,0,1,0,0,2.747,2.744,2.744,0,0,0,2.747,5.491Z" transform="translate(921.384 1500.892) rotate(-90)" fill="#03488b"/><path d="M2.747,5.491A2.746,2.746,0,1,0,0,2.747,2.744,2.744,0,0,0,2.747,5.491Z" transform="translate(921.384 1469.945) rotate(-90)" fill="#03488b"/><path d="M2.747,5.491A2.746,2.746,0,1,0,0,2.747,2.744,2.744,0,0,0,2.747,5.491Z" transform="translate(921.384 1438.998) rotate(-90)" fill="#03488b"/><path d="M2.744,5.491A2.746,2.746,0,1,0,0,2.747,2.744,2.744,0,0,0,2.744,5.491Z" transform="translate(952.332 1655.632) rotate(-90)" fill="#03488b"/><path d="M2.747,5.491A2.746,2.746,0,1,0,0,2.747,2.746,2.746,0,0,0,2.747,5.491Z" transform="translate(952.332 1624.687) rotate(-90)" fill="#03488b"/><path d="M2.747,5.491A2.746,2.746,0,1,0,0,2.747,2.744,2.744,0,0,0,2.747,5.491Z" transform="translate(952.332 1593.739) rotate(-90)" fill="#03488b"/><path d="M2.747,5.491A2.746,2.746,0,1,0,0,2.747,2.744,2.744,0,0,0,2.747,5.491Z" transform="translate(952.332 1562.792) rotate(-90)" fill="#03488b"/><path d="M2.747,5.491A2.746,2.746,0,1,0,0,2.747,2.744,2.744,0,0,0,2.747,5.491Z" transform="translate(952.332 1531.844) rotate(-90)" fill="#03488b"/><path d="M2.744,5.491A2.746,2.746,0,1,0,0,2.747,2.744,2.744,0,0,0,2.744,5.491Z" transform="translate(952.332 1500.895) rotate(-90)" fill="#03488b"/><path d="M2.747,5.491A2.746,2.746,0,1,0,0,2.747,2.746,2.746,0,0,0,2.747,5.491Z" transform="translate(952.332 1469.949) rotate(-90)" fill="#03488b"/><path d="M2.747,5.491A2.746,2.746,0,1,0,0,2.747,2.744,2.744,0,0,0,2.747,5.491Z" transform="translate(952.332 1439.002) rotate(-90)" fill="#03488b"/><path d="M2.747,5.493A2.747,2.747,0,1,0,0,2.747,2.747,2.747,0,0,0,2.747,5.493Z" transform="translate(983.279 1655.63) rotate(-90)" fill="#03488b"/><circle cx="2.747" cy="2.747" r="2.747" transform="translate(983.279 1624.682) rotate(-90)" fill="#03488b"/><path d="M2.747,5.493A2.747,2.747,0,1,0,0,2.747,2.747,2.747,0,0,0,2.747,5.493Z" transform="translate(983.279 1593.735) rotate(-90)" fill="#03488b"/><path d="M2.744,5.493A2.747,2.747,0,1,0,0,2.747,2.747,2.747,0,0,0,2.744,5.493Z" transform="translate(983.279 1562.786) rotate(-90)" fill="#03488b"/><path d="M2.747,5.493A2.747,2.747,0,1,0,0,2.747,2.749,2.749,0,0,0,2.747,5.493Z" transform="translate(983.279 1531.84) rotate(-90)" fill="#03488b"/><path d="M2.747,5.493A2.747,2.747,0,1,0,0,2.747,2.747,2.747,0,0,0,2.747,5.493Z" transform="translate(983.279 1500.892) rotate(-90)" fill="#03488b"/><circle cx="2.747" cy="2.747" r="2.747" transform="translate(983.279 1469.945) rotate(-90)" fill="#03488b"/><path d="M2.747,5.493A2.747,2.747,0,1,0,0,2.747,2.747,2.747,0,0,0,2.747,5.493Z" transform="translate(983.279 1438.998) rotate(-90)" fill="#03488b"/><path d="M2.744,5.493A2.747,2.747,0,1,0,0,2.747,2.747,2.747,0,0,0,2.744,5.493Z" transform="translate(1014.227 1655.632) rotate(-90)" fill="#03488b"/><path d="M2.747,5.493A2.747,2.747,0,1,0,0,2.747,2.749,2.749,0,0,0,2.747,5.493Z" transform="translate(1014.227 1624.687) rotate(-90)" fill="#03488b"/><path d="M2.747,5.493A2.747,2.747,0,1,0,0,2.747,2.747,2.747,0,0,0,2.747,5.493Z" transform="translate(1014.227 1593.739) rotate(-90)" fill="#03488b"/><circle cx="2.747" cy="2.747" r="2.747" transform="translate(1014.226 1562.792) rotate(-90)" fill="#03488b"/><path d="M2.747,5.493A2.747,2.747,0,1,0,0,2.747,2.747,2.747,0,0,0,2.747,5.493Z" transform="translate(1014.227 1531.844) rotate(-90)" fill="#03488b"/><path d="M2.744,5.493A2.747,2.747,0,1,0,0,2.747,2.747,2.747,0,0,0,2.744,5.493Z" transform="translate(1014.227 1500.895) rotate(-90)" fill="#03488b"/><path d="M2.747,5.493A2.747,2.747,0,1,0,0,2.747,2.749,2.749,0,0,0,2.747,5.493Z" transform="translate(1014.227 1469.949) rotate(-90)" fill="#03488b"/><path d="M2.747,5.493A2.747,2.747,0,1,0,0,2.747,2.747,2.747,0,0,0,2.747,5.493Z" transform="translate(1014.227 1439.002) rotate(-90)" fill="#03488b"/><path d="M2.747,5.493A2.747,2.747,0,1,0,0,2.747,2.747,2.747,0,0,0,2.747,5.493Z" transform="translate(1045.174 1655.63) rotate(-90)" fill="#03488b"/><path d="M2.747,5.493A2.747,2.747,0,1,0,0,2.747,2.747,2.747,0,0,0,2.747,5.493Z" transform="translate(1045.174 1624.682) rotate(-90)" fill="#03488b"/><path d="M2.747,5.493A2.747,2.747,0,1,0,0,2.747,2.747,2.747,0,0,0,2.747,5.493Z" transform="translate(1045.174 1593.735) rotate(-90)" fill="#03488b"/><path d="M2.744,5.493A2.747,2.747,0,1,0,0,2.747,2.747,2.747,0,0,0,2.744,5.493Z" transform="translate(1045.174 1562.786) rotate(-90)" fill="#03488b"/><path d="M2.747,5.493A2.747,2.747,0,1,0,0,2.747,2.749,2.749,0,0,0,2.747,5.493Z" transform="translate(1045.174 1531.84) rotate(-90)" fill="#03488b"/><path d="M2.747,5.493A2.747,2.747,0,1,0,0,2.747,2.747,2.747,0,0,0,2.747,5.493Z" transform="translate(1045.174 1500.892) rotate(-90)" fill="#03488b"/><path d="M2.747,5.493A2.747,2.747,0,1,0,0,2.747,2.747,2.747,0,0,0,2.747,5.493Z" transform="translate(1045.174 1469.945) rotate(-90)" fill="#03488b"/><path d="M2.747,5.493A2.747,2.747,0,1,0,0,2.747,2.747,2.747,0,0,0,2.747,5.493Z" transform="translate(1045.174 1438.998) rotate(-90)" fill="#03488b"/><path d="M2.744,5.493A2.747,2.747,0,1,0,0,2.747,2.746,2.746,0,0,0,2.744,5.493Z" transform="translate(1076.122 1655.632) rotate(-90)" fill="#03488b"/><path d="M2.747,5.493A2.747,2.747,0,1,0,0,2.747,2.748,2.748,0,0,0,2.747,5.493Z" transform="translate(1076.122 1624.687) rotate(-90)" fill="#03488b"/><path d="M2.747,5.493A2.747,2.747,0,1,0,0,2.747,2.746,2.746,0,0,0,2.747,5.493Z" transform="translate(1076.122 1593.739) rotate(-90)" fill="#03488b"/><path d="M2.747,5.493A2.747,2.747,0,1,0,0,2.747,2.746,2.746,0,0,0,2.747,5.493Z" transform="translate(1076.122 1562.792) rotate(-90)" fill="#03488b"/><path d="M2.747,5.493A2.747,2.747,0,1,0,0,2.747,2.746,2.746,0,0,0,2.747,5.493Z" transform="translate(1076.122 1531.844) rotate(-90)" fill="#03488b"/><path d="M2.744,5.493A2.747,2.747,0,1,0,0,2.747,2.746,2.746,0,0,0,2.744,5.493Z" transform="translate(1076.122 1500.895) rotate(-90)" fill="#03488b"/><path d="M2.747,5.493A2.747,2.747,0,1,0,0,2.747,2.747,2.747,0,0,0,2.747,5.493Z" transform="translate(1076.122 1469.949) rotate(-90)" fill="#03488b"/><path d="M2.747,5.493A2.747,2.747,0,1,0,0,2.747,2.746,2.746,0,0,0,2.747,5.493Z" transform="translate(1076.122 1439.002) rotate(-90)" fill="#03488b"/><path d="M2.747,5.491A2.746,2.746,0,1,0,0,2.747,2.744,2.744,0,0,0,2.747,5.491Z" transform="translate(1107.069 1655.63) rotate(-90)" fill="#03488b"/><path d="M2.747,5.491A2.746,2.746,0,1,0,0,2.747,2.744,2.744,0,0,0,2.747,5.491Z" transform="translate(1107.069 1624.682) rotate(-90)" fill="#03488b"/><path d="M2.747,5.491A2.746,2.746,0,1,0,0,2.747,2.744,2.744,0,0,0,2.747,5.491Z" transform="translate(1107.069 1593.735) rotate(-90)" fill="#03488b"/><path d="M2.744,5.491A2.746,2.746,0,1,0,0,2.747,2.744,2.744,0,0,0,2.744,5.491Z" transform="translate(1107.069 1562.786) rotate(-90)" fill="#03488b"/><path d="M2.747,5.491A2.746,2.746,0,1,0,0,2.747,2.746,2.746,0,0,0,2.747,5.491Z" transform="translate(1107.069 1531.84) rotate(-90)" fill="#03488b"/><path d="M2.747,5.491A2.746,2.746,0,1,0,0,2.747,2.744,2.744,0,0,0,2.747,5.491Z" transform="translate(1107.069 1500.892) rotate(-90)" fill="#03488b"/><path d="M2.747,5.491A2.746,2.746,0,1,0,0,2.747,2.744,2.744,0,0,0,2.747,5.491Z" transform="translate(1107.069 1469.945) rotate(-90)" fill="#03488b"/><path d="M2.747,5.491A2.746,2.746,0,1,0,0,2.747,2.744,2.744,0,0,0,2.747,5.491Z" transform="translate(1107.069 1438.998) rotate(-90)" fill="#03488b"/></g></svg>