<svg xmlns="http://www.w3.org/2000/svg" xmlns:xlink="http://www.w3.org/1999/xlink" width="825" height="548" viewBox="0 0 825 548"><defs><linearGradient id="a" x1="0.105" y1="0.441" x2="1" y2="0.529" gradientUnits="objectBoundingBox"><stop offset="0" stop-color="#343a44"/><stop offset="0.301" stop-color="#232c3d"/><stop offset="0.639" stop-color="#172339"/><stop offset="1" stop-color="#142138"/></linearGradient><linearGradient id="b" x1="0" y1="0.5" x2="1" y2="0.5" xlink:href="#a"/><linearGradient id="c" x1="0.717" y1="0.877" x2="0.31" y2="0.163" gradientUnits="objectBoundingBox"><stop offset="0" stop-color="#fff" stop-opacity="0"/><stop offset="0.236" stop-color="#f6f3f4" stop-opacity="0.22"/><stop offset="0.769" stop-color="#e1d5d9" stop-opacity="0.761"/><stop offset="0.994" stop-color="#d8c9ce"/></linearGradient><linearGradient id="d" y1="0.5" x2="1" y2="0.5" gradientUnits="objectBoundingBox"><stop offset="0" stop-color="#fff"/><stop offset="0.151" stop-color="#f0f6fb"/><stop offset="0.423" stop-color="#deeaf6"/><stop offset="0.702" stop-color="#d2e3f3"/><stop offset="1" stop-color="#cfe1f3"/></linearGradient><linearGradient id="e" x1="0.5" y1="0" x2="0.5" y2="1" xlink:href="#d"/><linearGradient id="f" x1="0.253" y1="0.518" x2="1.048" y2="0.518" gradientUnits="objectBoundingBox"><stop offset="0" stop-color="#89d5ff"/><stop offset="0.068" stop-color="#79cdfb"/><stop offset="0.245" stop-color="#57bdf4"/><stop offset="0.426" stop-color="#3db0ee"/><stop offset="0.61" stop-color="#2aa7ea"/><stop offset="0.799" stop-color="#1ea1e7"/><stop offset="1" stop-color="#1ba0e7"/></linearGradient><linearGradient id="g" x1="0" y1="0.5" x2="1" y2="0.5" xlink:href="#f"/><linearGradient id="j" x1="0.211" y1="-1.22" x2="1.171" y2="-1.22" xlink:href="#a"/><linearGradient id="k" x1="0" y1="0.5" x2="1" y2="0.5" xlink:href="#d"/><linearGradient id="m" x1="8.215" y1="-1.961" x2="9.132" y2="-1.961" xlink:href="#d"/><linearGradient id="n" x1="0.157" y1="0.341" x2="0.439" y2="0.445" gradientUnits="objectBoundingBox"><stop offset="0" stop-color="#ff9cb0"/><stop offset="0.064" stop-color="#fd8da4"/><stop offset="0.242" stop-color="#f96b89"/><stop offset="0.424" stop-color="#f65173"/><stop offset="0.608" stop-color="#f43e64"/><stop offset="0.798" stop-color="#f3325b"/><stop offset="1" stop-color="#f32f58"/></linearGradient><linearGradient id="p" x1="0.5" y1="0" x2="0.5" y2="1" xlink:href="#a"/><linearGradient id="q" x1="0.692" y1="0.447" x2="0.216" y2="0.585" xlink:href="#a"/><linearGradient id="s" x1="1.109" y1="0.08" x2="0.222" y2="0.574" xlink:href="#a"/><linearGradient id="t" x1="0.631" y1="-0.017" x2="0.454" y2="0.658" xlink:href="#d"/><linearGradient id="u" x1="0.989" y1="-0.053" x2="0.403" y2="0.823" xlink:href="#n"/><linearGradient id="v" x1="0.929" y1="-0.078" x2="0.168" y2="0.783" xlink:href="#d"/><linearGradient id="w" x1="0.54" y1="0.274" x2="0.134" y2="3.328" xlink:href="#n"/><linearGradient id="x" x1="0.5" y1="-0.328" x2="0.5" y2="1.268" gradientUnits="objectBoundingBox"><stop offset="0" stop-color="#70adff"/><stop offset="1" stop-color="#8fafcf"/></linearGradient><linearGradient id="y" x1="0.5" y1="-0.575" x2="0.5" y2="1.021" gradientUnits="objectBoundingBox"><stop offset="0" stop-color="#eef4fb"/><stop offset="0.311" stop-color="#e3edf8"/><stop offset="1" stop-color="#cfe1f3"/></linearGradient><linearGradient id="aa" x1="0.5" y1="-0.46" x2="0.5" y2="1.135" xlink:href="#y"/><linearGradient id="ac" x1="0.5" y1="-0.59" x2="0.5" y2="1.005" xlink:href="#y"/><linearGradient id="ad" x1="0.387" y1="1.056" x2="0.714" y2="-0.468" gradientUnits="objectBoundingBox"><stop offset="0" stop-color="#3e7aca"/><stop offset="1" stop-color="#7bb4ff"/></linearGradient><linearGradient id="ae" x1="0.5" x2="1.044" y2="3.412" gradientUnits="objectBoundingBox"><stop offset="0" stop-color="#03488b"/><stop offset="1" stop-color="#1364b4"/></linearGradient><linearGradient id="af" x1="0.5" x2="1.044" y2="3.412" gradientUnits="objectBoundingBox"><stop offset="0" stop-color="#3e7aca"/><stop offset="1" stop-color="#b4d4ff"/></linearGradient></defs><g transform="translate(-1511 1620)"><g transform="translate(826 -2374.059)"><g transform="translate(1055.531 824.302)"><path d="M205.279,246.592c-1.213,5.338-5.8,37.409-7.164,41.795s.853,13.526,3.583,22.3,7.847,29.082,7.847,29.082,10.6,2.4,14.623,0c0,0-1.85-14.094-4.216-29.082s-4.557-15.354-1.633-24.858,8.425-25.2,11.34-31.79-.252-24.506-.252-24.506-20.614,8.7-22.663,10.724S205.963,243.586,205.279,246.592Z" transform="translate(-103.331 -153.047)" fill="url(#a)"/><path d="M210.184,234.095c-.19,3.159,4.441,18.125,6.39,20.877s9.5,26.635,11.941,37.116,6.093,18.521,7.8,25.345,5.849,23.638,5.849,23.638,12.915.733,12.915,0-1.462-9.017-2.924-21.688-7.068-24.127-7.8-34.849,0-37.044-6.093-51.177S210.184,234.095,210.184,234.095Z" transform="translate(-94.398 -154.675)" fill="url(#b)"/><g transform="translate(65.003)"><path d="M196.177,194.879s5,5.923,7.86,7.591,14.768,0,14.768,0-4.049,11.91-9.528,15.245-15.722,2.382-15.722,2.382a24.194,24.194,0,0,0,1.429-8.337c-.237-3.844-6.649-6.67-6.649-6.67Z" transform="translate(-175.038 -177.855)" fill="#ffd7cf"/><path d="M196.177,194.879s5,5.923,7.86,7.591,14.768,0,14.768,0-4.049,11.91-9.528,15.245-15.722,2.382-15.722,2.382a24.194,24.194,0,0,0,1.429-8.337c-.237-3.844-6.649-6.67-6.649-6.67Z" transform="translate(-175.038 -177.855)" fill="url(#c)" style="mix-blend-mode:multiply;isolation:isolate"/><path d="M181.522,197.954s2.62,5.057,3.216,5.891,1.548,2.74,2.382,3.931a26.759,26.759,0,0,0,7.028,5.359c1.666.6,4.168-.357,5.479-2.143a50.574,50.574,0,0,0,3.811-7.624c.952-2.143,0-7.86,0-7.86s-.12-4.406-7.028-4.763a79.575,79.575,0,0,0-10.6,0Z" transform="translate(-179.916 -180.929)" fill="#ffd7cf"/><path d="M182.192,201.982c.765.75,1.668,1.127,4.288-.064s2.382-5.448,7.383-6.671c1.809-.441,2.62.54,3.1,3.368l.477,2.826,1.429,1.668s-.477-3.813,1.191-5.717,4.526,3.463,1.668,4.59,3.334,3.27,3.334,3.27,0-1.429,1.668-5.956-1.543-10.951-5-12.387c-4.846-2.011-5.242-1.191-5.242-1.191s-5.793-2.967-11.754,2.812C179.49,193.612,179.917,199.749,182.192,201.982Z" transform="translate(-180.586 -184.957)" fill="#502c16"/></g><path d="M192.441,209.81l.487-1.543s5.606,4.144,6.824,4.144c0,0,5.484-11.007,4.266-13.2a21.589,21.589,0,0,0,5.6-.276c4.043-.657,5.849,0,5.849,0s5.728,23.955,9.87,31.51,8.773,14.134,8.773,14.134l.975,7.068s-2.924,5.484-11.21,8.1l-8.286,2.62s2.193-11.7-5.362-21.447-20.47-24.858-20.47-24.858Z" transform="translate(-109.014 -175.16)" fill="url(#d)"/><path d="M144.214,234.467A9.315,9.315,0,0,0,148,232.9c1.072-.93,2.38-1.93,3.727-1.716s2.85.971,2.563,1.63-3.432,1.443-4,2.373-1.788,2.359-1.788,3.789a20.022,20.022,0,0,1-.987,4.362,7.36,7.36,0,0,0-4.017-.518C141.355,243.19,144.214,234.467,144.214,234.467Z" transform="translate(-142.702 -151.89)" fill="#ffd7cf"/><path d="M146.842,233.768c2.234-.573,7.023-.858,8.24,0a23.955,23.955,0,0,1,4.647,5.218c.429,1,1.716.733,1.072,1.654s-1.287,3.209-2.217,4.209a2.793,2.793,0,0,1-3.459.7c-1.33-.626-3.833-1.055-5.263-2.057s-3.075-1.858-4.5-1.644a9.233,9.233,0,0,1-2.656,0s1.369-6.22,1.012-6.936S146.842,233.768,146.842,233.768Z" transform="translate(-142.702 -150.404)" fill="#ffd7cf"/><path d="M159.792,232.72a73.377,73.377,0,0,1-9.437,0c-1.716-.281-3.145,1.863-4.432,3.008s.716,1.911,2,1.814,3-2.047,4.145-1.716,2.574,2.739,3.861,4.322,1.431,2.747,2.86,2.666,2.145-1.685,5.005-3.027a65.673,65.673,0,0,0,6.719-3.917l-3.56-5.681S162.663,232.531,159.792,232.72Z" transform="translate(-140.693 -152.578)" fill="#ffd7cf"/><path d="M160.267,231c-2.287.429-6.434,1.139-6.434,1.139s1.145,4.693,1.431,7.068a22.033,22.033,0,0,0,.714,3.715s5.292-1.2,8.008-2.771,7.006-6.548,7.006-6.548Z" transform="translate(-134.734 -151.997)" fill="url(#e)"/><path d="M210.838,209.649c-2.2,2.376-10.609,11.913-17.256,18.228s-11.659,8.073-20.959,11.989a168.441,168.441,0,0,1-17.073,6.419s2.7,7.543,3.917,11.234c0,0,19.863-4.449,29.494-8.439s32.915-24.134,32.915-24.134Z" transform="translate(-133.505 -167.281)" fill="url(#f)"/><path d="M199.7,199.48s1.462,21.845,1.1,26.6,5.849,12.064,8.773,18.645,10.966,18.379,14.257,18.693,18.643-.293,24.858-5.9c0,0-5.484-9.02-11.7-20.47-6.289-11.589-10.235-18.971-13.159-26.484s-11.7-12.963-11.7-12.963A45.5,45.5,0,0,0,199.7,199.48Z" transform="translate(-101.897 -175.91)" fill="url(#g)"/><path d="M193.865,205.151a76.4,76.4,0,0,0,8.286,10.887,78,78,0,0,0,7.629,7.6s7.481,9.46,9.918,13.114,4.482,6.357,4.434,9.393,1.172,8.946-2.972,14.978c0,0-.244,2.68-8.773,2.924a126.244,126.244,0,0,0,1.218-13.159c.239-7.8-3.361-7.555-8.26-12.43s-10.261-9.748-13.428-13.89-4.144-11.7-4.144-11.7S189.236,207.426,193.865,205.151Z" transform="translate(-110.438 -170.501)" fill="url(#g)"/><path d="M234.785,290.606a15.444,15.444,0,0,1-6.517,9.379c-4.585,3.063-6.841,6.169-4.887,8.082,0,0,22.919.215,23.3-2.649.614-4.629-2.449-14.811-2.449-14.811Z" transform="translate(-85.452 -109.328)" fill="url(#b)"/><path d="M213.189,292.116c-2.843,1.12-3.5,3.406-8.289,8.07s-8.059,4.873-6.464,7.1,19.089.264,19.089.264,7.713-1.134,7.539-5.8a15.986,15.986,0,0,0-2.569-8Z" transform="translate(-103.096 -108.247)" fill="url(#j)"/><path d="M233.329,233.367a17.423,17.423,0,0,1,2.9,6.132,10.749,10.749,0,0,0,1.613,4.142c.484.537,2.744.86,2.744.86s.484,1.776,1.615,1.937.968-.161,2.26,0,1.452-.645,2.742-1.129,1.131-.431,1.937-1.668.323-1.836-1.129-3.717a47.511,47.511,0,0,0-5.165-5.752c-2.26-2.152-4.55-6.764-4.55-6.764Z" transform="translate(-77.826 -154.567)" fill="#ffd7cf"/><path d="M232.405,231.829l2.9,6.132a7.975,7.975,0,0,0,8.08-3.862l-6.014-8.228Z" transform="translate(-78.487 -155.668)" fill="url(#k)"/><path d="M209.8,197.6a53.488,53.488,0,0,1,19.741,9.837c8.773,7.311,16.45,15.719,19.008,18.277s14.623,25.71,14.623,25.71-3.656,1.706-9.139,4.631a165.292,165.292,0,0,1-14.623-20.789c-3.646-6-19.031-13.085-27.61-16.985S198.1,200.552,209.8,197.6Z" transform="translate(-99.562 -175.91)" fill="url(#g)"/></g><path d="M113.9,219.926c1.785-.892,10.829-1.965,11.3-.535a19.616,19.616,0,0,1,.745,4.64,6.731,6.731,0,0,0,.625,2.946c.446.714,1.7,1.428,1.428,2.052s-1.249.981-1.249,1.7,0,.981-.268,1.338.268.714.089,1.249.535,2.322.357,3.3-1.7,1.963-4.82,2.409-4.461,2.768-6.158,5.266-3.965,10.173-3.965,10.173l-13.219-7.5s3.888-5.621,4.334-8.389,1.517-7.853,1.517-7.853Z" transform="translate(881.375 663.496)" fill="#ffd6cf"/><g transform="translate(948.511 907.832)"><path d="M96.51,275.282a17.438,17.438,0,0,0,4.574,5.014,10.72,10.72,0,0,1,3.221,3.063c.314.652-.244,2.865-.244,2.865s1.46,1.12,1.181,2.227-.516.836-.856,2.092-1.148,1.1-2.085,2.111-.827.882-2.277,1.16-1.822-.4-3.011-2.454a47.531,47.531,0,0,1-3.365-6.96c-1.134-2.907-4.535-6.776-4.535-6.776Z" transform="translate(-74.045 -203.827)" fill="#ffd7cf"/><path d="M95.438,273.845l4.573,5.012a7.972,7.972,0,0,1-6.637,6.012l-5.333-8.682Z" transform="translate(-74.812 -204.855)" fill="url(#m)"/><path d="M109.648,233.638s-6.7,3.584-14.362,12.049S81.2,264.582,80.58,268.147c-2.533,14.6,15.13,43.385,15.13,43.385s3.056-2.632,7.975-6.429c0,0-4.822-18.78-4.14-28.775.477-7,9.739-19.2,17.691-24.262S121.644,234.933,109.648,233.638Z" transform="translate(-80.331 -233.638)" fill="url(#n)"/></g><path d="M107.353,217.528c-6.187-.237-8.33,1.9-8.567,8.33s1.4,6.754,2.349,8.686c2.316,4.695,1.671,7.785,1.671,7.785s1.929,1.141,5.975.664,4.76-3.094,6.187-4.283a18.756,18.756,0,0,0,2.38-2.38,6.6,6.6,0,0,1-2.855-3.809c-.477-2.38,1.428-3.473,2.855-1.855l1.428,1.618s1.429.053.952-2.711,0-3.476,1.191-4.906,4.283-2.617,4.283-2.617-2.617-5.951-7.853-6.9S107.353,217.528,107.353,217.528Z" transform="translate(881.374 660.836)" fill="url(#b)"/><path d="M125.219,313.11c-.885,2.871,1.072,8.3,1.716,10.51s3,1.5,8.794,1.287,13.941-.429,15.872-.858-1.247-5.511-3.646-6.22c-3.933-1.162-8.415-3.075-9.437-5.148s-4.5-1.93-4.5-1.93Z" transform="translate(900.152 729.394)" fill="url(#p)"/><path d="M90.463,267.049c-4.89,4.372-5.118,13.162-2.193,21.206s6.148,9.5,15.069,9.87,30.069,11.946,31.435,14.755c6.424,13.21,18.929,37.883,18.929,37.883s5.849,2.558,13.161-3.657c0,0-4.559-15.781-9.056-29.389-5.583-16.9-8.241-19.767-13.811-25.227-3.392-3.329-22.842-17.763-30.762-22.881S96.192,261.93,90.463,267.049Z" transform="translate(872.499 696.114)" fill="url(#q)"/><path d="M76.625,328.388s-1.829.731-3.84,4.2-5.3,4.387-1.646,7.678,8.775,8.591,10.42,8.775,11.038.913,12.867,0-.36-3.126-2.855-5.668c-2.025-2.062-5.189-5.849-5.371-6.946a43.771,43.771,0,0,1,.3-5.667Z" transform="translate(860.422 742.021)" fill="url(#p)"/><path d="M88.583,272.133c-3.053,5.724-.609,13.162,1.585,25.594s2.529,23.593,3.26,29.442-2.27,6.694-9.6,20.951a199.778,199.778,0,0,0-11.35,26.69s4.461,6.721,11.371,8.55c0,0,13.856-20.982,19.7-30.12a61.525,61.525,0,0,0,9.14-24.214c1.512-9.621,5.158-33.749,4.887-50.932s-12.425-12.176-17.177-11.81S92.483,264.822,88.583,272.133Z" transform="translate(862.558 696.879)" fill="url(#s)"/><path d="M98.764,234.025s1.405-2.89,1.549-3.318,2.469-.357,6.863,0,8.771,5.2,8.771,5.2l-6.2,3.813Z" transform="translate(881.375 671.883)" fill="url(#t)"/><path d="M117.43,231.7c3.543.187,9.262,3.411,10.48,4.629s6.234,5.74,5.007,16.824c-.935,8.437-5.848,22.833-6.779,28.137-1.043,5.933-3.346,15.3-6.515,17.251s-3.8,4.212-14.381,3.9c-7.95-.235-23.379-6.095-23.379-6.095s2.054-6.05,4.358-13.4c6.17-19.7,18.873-44.834,22.613-50.587C109.632,231.131,114.477,231.543,117.43,231.7Z" transform="translate(869.277 672.667)" fill="url(#u)"/><path d="M142,233.656l4.14-1.038a8.281,8.281,0,0,1,1.663,7.191c-.987,4.362-.987,2.646-.987,2.646l-4.019,1.2Z" transform="translate(912.325 673.463)" fill="url(#v)"/><path d="M107.718,249.215c2.865,1.138,3.958,1.3,15.414,1.536s13.207,2.366,20.868,1.52c9.535-1.05,29.044-6.706,29.044-6.706s1.76-8.372-.957-12.92c0,0-26.064,6.021-33.514,4.7s-20.925-3.576-26.181-4.415-11.112.273-10.719,6.834C101.906,243.654,103.861,247.684,107.718,249.215Z" transform="translate(883.444 673.483)" fill="url(#w)"/><path d="M145.789,241.24c1.92,1.253,4.7,2.363,5.849,2.363s2.716-1.721,3.145-2.363-.5-1.069-1.072-1.141-.5-1.68-1.5-1.591-.662-.752-1.869-.688-.705-.582-1.85-.652-1.831,1.072-2.7,1.858S144.863,240.636,145.789,241.24Z" transform="translate(914.556 676.718)" fill="#ffd7cf"/><g transform="translate(1022.158 1053.294)"><rect width="69.065" height="220.754" transform="translate(0 0)" fill="url(#x)"/><rect width="69.065" height="220.754" transform="translate(23.2)" fill="url(#y)"/></g><g transform="translate(1136.133 1020.09)"><rect width="69.065" height="253.957" transform="translate(0)" fill="url(#x)"/><rect width="69.065" height="253.957" transform="translate(23.2)" fill="url(#aa)"/></g><g transform="translate(911.451 1088.97)"><rect width="69.065" height="185.077" fill="url(#x)"/><rect width="69.065" height="185.077" transform="translate(23.2 0)" fill="url(#ac)"/></g><path d="M53.225,270.344l55.647-47.2L120.7,241.814l60.123-41.332L197.6,223.037l52.028-42.213,16.825,17.91L312.54,165.9l7.984,8.736,11-30.615-33.349,2.7,7.43,10.683L265.316,188.25l-17.693-22.278-48.715,47.415-20.517-28.632-56.5,51.67L107.21,212.712Z" transform="translate(848.775 610.039)" fill="url(#ad)"/></g><rect width="810" height="29" transform="translate(1511 -1101)" opacity="0.1" fill="url(#ae)"/><rect width="785" height="20" transform="translate(1551 -1109)" fill="url(#af)"/></g></svg>